<?xml version="1.0" encoding="UTF-8"?>
<svg id="Capa_2" data-name="Capa 2" xmlns="http://www.w3.org/2000/svg" xmlns:xlink="http://www.w3.org/1999/xlink" viewBox="0 0 100 88.44">
  <defs>
    <style>
      .cls-1, .cls-2, .cls-3, .cls-4, .cls-5, .cls-6, .cls-7, .cls-8, .cls-9 {
        stroke: #fff;
        stroke-miterlimit: 10;
      }

      .cls-1, .cls-3, .cls-5, .cls-9 {
        fill: none;
      }

      .cls-1, .cls-6 {
        stroke-width: 1.42px;
      }

      .cls-2, .cls-10, .cls-4, .cls-7, .cls-8 {
        fill: #fff;
      }

      .cls-2, .cls-8 {
        stroke-width: .14px;
      }

      .cls-11 {
        filter: url(#drop-shadow-2);
      }

      .cls-3 {
        stroke-width: .71px;
      }

      .cls-4, .cls-9 {
        stroke-width: .57px;
      }

      .cls-12 {
        filter: url(#drop-shadow-1);
      }

      .cls-7 {
        stroke-width: .28px;
      }

      .cls-8 {
        filter: url(#drop-shadow-3);
      }
    </style>
    <filter id="drop-shadow-1" x="-8.13" y="-8.06" width="130.32" height="118.56" filterUnits="userSpaceOnUse">
      <feOffset dx="7" dy="7"/>
      <feGaussianBlur result="blur" stdDeviation="5"/>
      <feFlood flood-color="#1d1d1b" flood-opacity=".75"/>
      <feComposite in2="blur" operator="in"/>
      <feComposite in="SourceGraphic"/>
    </filter>
    <filter id="drop-shadow-2" x="28.13" y="45.72" width="37.68" height="42" filterUnits="userSpaceOnUse">
      <feOffset dx="2.83" dy="2.83"/>
      <feGaussianBlur result="blur-2" stdDeviation="2.83"/>
      <feFlood flood-color="#010101" flood-opacity=".5"/>
      <feComposite in2="blur-2" operator="in"/>
      <feComposite in="SourceGraphic"/>
    </filter>
    <filter id="drop-shadow-3" x="49.01" y="53.64" width="30.48" height="34.8" filterUnits="userSpaceOnUse">
      <feOffset dx="2.83" dy="2.83"/>
      <feGaussianBlur result="blur-3" stdDeviation="2.83"/>
      <feFlood flood-color="#010101" flood-opacity=".5"/>
      <feComposite in2="blur-3" operator="in"/>
      <feComposite in="SourceGraphic"/>
    </filter>
  </defs>
  <g id="Capa_1-2" data-name="Capa 1">
    <g class="cls-12">
      <g>
        <path class="cls-10" d="M11.19,71.63c.77-3.46-1.52-6.21-1.88-9.36-1.3-11.43,5.13-18.62,13.67-24.37,21.43-14.42,45.5-11.45,63.8,6.81,6.29,6.28,5.12,13.04,4.2,20.24-.09.73-.68,1.4-1.27,2.54-1.91-3.2-1.93-6.28-1.43-9.19.67-3.98-.49-7.16-2.99-10.09-15.3-18-43.25-21.15-61.3-6.64-5.13,4.12-10.9,8.21-11.11,15.82-.1,3.72.47,7.45.56,11.18.03,1.37-.79,2.51-2.26,3.06Z"/>
        <path class="cls-10" d="M69.77,44.32c-.21-1.14-.4-2.13-.65-3.49,1.82.84,3.3,1.53,4.92,2.28-1.49.39-3.07-.02-4.27,1.2Z"/>
        <path class="cls-10" d="M58.04,38.17c.91,2.99-4.75,6.78-9.16,6.19.39-2.36-1.06-1.59-2.12-1.16-4.29,1.72-8.42,4.22-13.34,2.66-.82-.26-1.57-.71-3.4-1.56,4.15,0,7.17.06,10.19-.02,1.88-.05,3.58-.55,5-2.02,1.48-1.54,3.43-1.23,5.33-.75,4.51,1.13,5.25.8,7.5-3.34Z"/>
        <path class="cls-10" d="M41.74,41.93c3.74-2.86,6.84-6.37,11.94-5.65.73.1,1.51.14,1.58,1.13.07.93-.69,1.15-1.33,1.36-3.91,1.25-8.21.98-12.18,3.16Z"/>
        <path class="cls-10" d="M53.36,44.86c4.67-.27,5.18-6.71,10.27-6.81-2.8,3.5-5.41,6.82-10.27,6.81Z"/>
        <path class="cls-10" d="M35.95,43.8c2.57-3.93,5.77-5.51,10.55-6.31-4.23,1.71-7.42,3.31-10.55,6.31Z"/>
        <path class="cls-10" d="M64.13,17.19c-2.73-2.91-6.33-1.55-10.38-2.38,2.31-1,3.81-1.95,5.44-2.27,2.19-.43,4.47-.46,6.71-.51,1.03-.02,2.54-.29,2.9.92.36,1.19-1.04,1.77-1.88,2.41-.89.68-1.87,1.24-2.78,1.83Z"/>
        <path class="cls-10" d="M24.84,27.76c4.04-3.24,8.44-4.44,13.29-5.58-4.15,2.78-8.43,4.25-13.29,5.58Z"/>
        <path class="cls-10" d="M38.78,26.11c2.44-3.23,6.94-.31,9.38-4.85-.39,1.88-.29,2.77-.7,3.16-2.35,2.28-5.34,1.62-8.69,1.68Z"/>
        <path class="cls-10" d="M12.75,31c.07-4.74-1.26-8.84,1.14-14.11-.65,5.39,1.11,9.51-1.14,14.11Z"/>
        <g>
          <path class="cls-10" d="M92.61,11.96c-3.18,12.05,1.72,24.17-.4,35.59-2.92-1.97-4.53-8.24-1.98-11.52-.12,2.65-.73,5.14.12,7.72,1.76-7.99.93-15.73-.88-23.9-1.47,4.45-.13,8.35.45,12.38-4.6-1.44-1.83-7.36-5.92-9.52.61,1.91,2.18,3.4,1,4.75-.82.94-2.14-.39-3.13-.98-5.8-3.47-11.81-6.36-18.56-7.57-4.73-.85-9.39-2.11-13.45,1.78-1.09,1.04-1.28,1.96.2,2.78,2.08-1.75,4.28-3.12,7.5-3.35-.73.81-1.14,1.27-1.75,1.94,3.27,2.11,4.91-.96,6.94-1.97-1.31,7.3-7.11,4.06-11.85,4.1,1.86,2.08,16.28,1.56,17.47-.16-1.75-.9-3.44-.05-5.14.13-.11-1.12.45-1.74,1.38-1.87,4.71-.69,8.27,2.23,13.26,4-3.52.44-5.77-.45-7.86-1.05-3.52,1.9-7.16.83-11.64,1.1,3.43.74,5.95,1.2,8.42,1.82,3.93.99,6.48,2.55,6.14,3.91-9.88-5.7-20.52-6.51-31.46-4.79-11.11,1.75-20.11,7.59-28.79,16.43,2.08-4.7,5.23-6.2,7.98-8.32,7.45-5.73,16.17-8.97,24.34-13.27.49-.26.93-.6,1.64-1.06-4.16-.75-6.95,1.15-9.62,3.37-7.09,5.9-18.56,2.31-24.12,11.81,4.74-.63,6.35-6.81,11.87-6.3-2.88,2.96-5.97,5.36-9.38,7.33-.8.46-1.85.07-2.59-.85-.03.06-.07.11-.1.17-.72-2.06-.22-3.09.78-3.72,9.19-5.75,18.07-12.01,29.5-12.88,8.35-.63,10.07-2.7,9.04-9.04-.59-3.66-1.29-7.3-1.93-10.95h-.37c-1.16,3.68-1.26,7.49-1.34,11.29-.11,5.04-2.59,6.96-7.68,7.36-5.06.4-10.24,1.39-14.7,4.36-4.62,3.09-10.01,4.98-14.39,9.84-.28-3.92-.53-6.94-.71-9.97-.45-7.79-.54-8.3-1.67-8.67-1.16,13.88-1.18,27.8-1.21,41.79.64-6.02,4.1-10.59,8.85-14.81,11.2-9.93,23.95-14.48,38.95-13.42,8.13.58,14.87,5.38,22.74,6.53,3.07.45,5.31,2.56,7.61,4.38,1.12.89,1.73,2.43,2.57,3.68-2.02-1.06-3.65-2.41-5.24-3.79-3.38-2.93-4.4-3.43-5.22-2.62,7.34,6.46,17.04,11.38,14.86,23.99,2.95-16.12-.23-32.06-.53-47.99ZM69.12,26.51c5.3,1.02,9.81,1.89,14.32,2.75-4.66-.12-9.52.74-14.32-2.75ZM88.81,36.4c-.05.25-1.21.59-1.61.39-3.62-1.86-7.19-3.83-12.19-6.55,5.91.57,10.07,1.26,13.63,3.83.43.31.32,1.57.17,2.33Z"/>
          <path class="cls-10" d="M8.01,60.1c0-1.37,0-2.73,0-4.1-.14,1.3-.15,2.66,0,4.1Z"/>
          <path class="cls-10" d="M12.69,36.26c.04.05.08.1.12.15.03-.06.07-.12.1-.18-.07,0-.14.02-.22.02Z"/>
        </g>
        <line class="cls-4" x1="34.82" y1="48.85" x2="34.82" y2="76.33"/>
        <line class="cls-4" x1="37.62" y1="48.85" x2="37.62" y2="76.33"/>
        <line class="cls-4" x1="40.61" y1="48.85" x2="40.61" y2="76.33"/>
        <line class="cls-4" x1="43.45" y1="48.85" x2="43.45" y2="76.33"/>
        <line class="cls-4" x1="45.93" y1="48.85" x2="45.93" y2="76.33"/>
        <line class="cls-4" x1="48.48" y1="48.85" x2="48.48" y2="76.33"/>
        <line class="cls-4" x1="51.31" y1="48.85" x2="51.31" y2="76.33"/>
        <line class="cls-4" x1="50.77" y1="48.88" x2="50.77" y2="76.36"/>
        <line class="cls-4" x1="54.18" y1="48.68" x2="54.18" y2="76.16"/>
        <line class="cls-4" x1="68.86" y1="55.19" x2="33.05" y2="55.19"/>
        <line class="cls-4" x1="57.17" y1="48.68" x2="57.17" y2="76.16"/>
        <line class="cls-4" x1="60.01" y1="48.68" x2="60.01" y2="76.16"/>
        <line class="cls-4" x1="62.49" y1="48.68" x2="62.49" y2="76.16"/>
        <line class="cls-4" x1="65.26" y1="48.68" x2="65.26" y2="76.16"/>
        <line class="cls-4" x1="67.76" y1="48.68" x2="67.76" y2="76.16"/>
        <rect id="Escalón_1" data-name="Escalón 1" class="cls-10" x="32.69" y="76.13" width="37.72" height="2.05"/>
        <rect id="Escalón_2" data-name="Escalón 2" class="cls-7" x="35.69" y="74.45" width="31.11" height="1.54" rx=".77" ry=".77"/>
        <g class="cls-11">
          <path class="cls-2" d="M40.86,70.16c-.06.07-.12.15-.18.22,0-.09.01-.18.01-.27,0-.03-.02-.06-.02-.09-.02.05-.05.09-.07.14-.06.16-.12.32-.18.48.01-.18.03-.36.04-.54,0-.08.02-.15.03-.23-.02.06-.05.12-.07.18,0,.01-.03.02-.04.03-.02-.08-.06-.16-.06-.24,0-1.02.12-2.03.46-3,.02-.05.01-.11.02-.16-.03.04-.08.08-.1.13-.14.39-.45.73-.47,1.17,0,.01-.05.02-.07.04-.01-.05-.04-.11-.03-.15.05-.22.11-.43.16-.65,0-.01-.04-.03-.06-.05h0c.04-.12.08-.23.13-.35,0,0,0,0,0,0-.55.81-.66,1.71-.8,2.67-.21,1.48-.92,2.81-1.96,3.93-.04.04-.11.04-.17.06,0-.08-.04-.17-.01-.23.55-1.1.59-2.31.64-3.49.04-.85-.2-1.71-.33-2.55-.02-.1-.2-.16-.33-.06h0c-.19.38.02.74.03,1.11.05,1.05.15,2.1.22,3.14,0,.05-.03.11-.04.16-.02-.05-.05-.1-.06-.15-.32-1.09-.65-2.18-.94-3.27-.18-.68-.2-1.38-.1-2.09.01-.09-.04-.18-.07-.27h0c.02-.11.04-.21.06-.32-.05.11-.12.21-.16.33-.29.78-.57,1.55-.86,2.33-.01.04-.05.07-.08.11-.01-.05-.05-.1-.04-.14.14-.75.29-1.49.44-2.24,0,0,0,0,0,0-.1-.07-.09-.07-.23.19-.02.04-.07.08-.1.11,0-.05,0-.09-.01-.14,0-.03,0-.06,0-.09-.02.02-.05.04-.06.07-.03.08-.07.17-.09.25-.04.15-.07.31-.11.46,0-.19-.05-.4,0-.57.45-1.24,1.05-2.41,1.79-3.51.2-.29.41-.58.58-.89.06-.1.18-.31.02-.36-.27-.08-.55.06-.69.29-.61.96-1.35,1.85-1.75,2.94-.05.15-.13.29-.32.32,0-.14-.04-.29,0-.42.23-.91.45-1.83.99-2.62,0,0,0,0,0,0,.37-.48.76-.95.83-1.59,0,0,0,0,0,0-.61.58-1.21,1.17-1.82,1.75-.1.09-.22.16-.33.24-.03-.24-.03-.48.15-.68.09-.1.15-.23.22-.35.06-.08.12-.16.18-.24,0,0-.03-.03-.05-.05-.04.09-.08.19-.13.28-.1.09-.2.18-.3.26.09-.26.14-.54.27-.77.09-.17.29-.28.44-.42-.02.04-.04.09-.06.13-.04.07-.02.1.04.04.03-.03.01-.11.02-.16.05-.5.38-.84.64-1.23.03-.05.06-.11.09-.17h0c.48-.84,1.28-1.29,2.09-1.73.05-.03.08-.09.12-.13-.05-.04-.1-.09-.16-.11-.88-.28-1.77-.56-2.66-.81-.39-.11-.79-.12-1.11.21-.05.05-.12.07-.18.11.01-.08,0-.18.04-.25.44-.65,1.12-.95,1.85-.99,1.92-.11,3.56.76,5.2,1.59.12.06.17.3.35.16.03-.02-.06-.22-.11-.33-.25-.63-.77-.94-1.36-1.18-.87-.36-1.8-.66-2.58-1.17-.31-.2-.65-.24-.93-.45-.03-.02-.04-.06-.06-.08.04-.02.08-.05.12-.05.26-.02.6.07.78-.06.86-.63,1.57.12,2.35.18.31.02.5.26.75.39.06.03.11.06.17.09-.02-.08,0-.19-.05-.24-.24-.25-.49-.49-.74-.74-.03-.03-.16-.08,0-.13.02,0,.04.02.07.03,0,0,0,0,0,0-.02,0-.04-.02-.07-.03-.51-.35-.64-.94-.93-1.43-.04-.06,0-.16,0-.25.06.04.13.06.17.11.17.21.36.42.5.65.15.24.22.47.59.21.15-.11.47.03.65.21,1.06,1.05,1.79,2.31,2.31,3.7.02.06.11.09.16.14,0-.08.04-.17.02-.23-.33-.96-.55-1.95-.56-2.97,0-.06.06-.12.09-.18.04.03.12.05.13.09.46,2.43,2.17,4.39,2.58,6.84.11.66.17,1.28-.02,1.94-.05.17-.11.52.02.82.12.27.01.25.51.24.84-.02,1.53-.3,1.96-1.01.44-.74.78-1.55,1.18-2.31.31-.6.64-1.19,1-1.77.13-.21-.02-.29-.09-.39-.08-.12-.13.05-.19.06-.08.01-.24-.02-.25-.06-.06-.3-.59-.48-.27-.86.43-.49.78-1.11,1.56-1.11.16,0,.15-.09.05-.2-.09-.09-.3-.18-.18-.31.1-.11.33-.17.47-.14.65.16,1.21.49,1.58,1.09.02.04.11.04.17.07,0-.09.04-.19.02-.27-.03-.14-.24-.32-.04-.41.2-.09.39.1.47.28.21.45.17.92.05,1.38-.08.27,0,.49.11.72h0s-.09.07-.13.1c0,0,0,0,0,0,.03.11.27.15.1.32-.03-.01-.06-.02-.1-.03,0,0,0,0,0,0,0,0,0,0,.01,0,.03.01.06.02.1.03.08.04.17.09.25.13,0,0,0,0,0,0,.01,0,.02,0,.04,0h0c.06.02.16.01.18.05.07.13-.04.05-.08.05-.03,0-.05,0-.08-.01-.83-.21-.76.5-.61.81.34.72-.3.78-.56,1.1-.04.05-.08.13-.08.2,0,.08.05.15.07.23-.12-.06-.25-.1-.36-.18-.8-.58-.29-1.2-.05-1.82.21-.53-.45-.56-.56-.93-.06-.21-.11-.34.03-.53.06-.08.27-.18.13-.3-.1-.08-.25-.05-.43.07-.3.2-.55.38-.6.75-.04.27-.29.52-.04.81.03.04,0,.14,0,.21,0,0-.04.01-.06.02,0-.03.03-.07.02-.1,0-.02-.07-.05-.08-.04-.05.04-.13.1-.12.13.14.38-.12.59-.32.83-.06.07-.07.25-.04.23.25-.16.37-.05.46.17.02.04.04.07.05.11-.45.09-.11.53-.32.73-.05.05-.03.17-.05.26.03,0,.07.02.09,0,.1-.11.2-.22.29-.34.05-.07.08-.16.12-.24,0-.01.05,0,.07-.01-.02.08-.03.17-.06.24-.05.11-.14.21-.19.33-.04.11-.05.23-.06.34,0,.02.09.07.11.06.09-.07.18-.15.26-.23.04-.04.05-.09.08-.14,0,.08,0,.17.02.25.01.09.04.18.07.26.05-.08.1-.16.14-.25.03-.06.04-.12.06-.19.01.07.04.14.04.22,0,.16,0,.32.17.41.04-.11.08-.22.12-.33.03-.08.04-.15.07-.23.05.15.11.3.16.46.03.08.07.15.1.23.04-.07.08-.14.11-.21.02-.03.02-.07.03-.11.02.04.04.07.05.11.05.26.12.48.44.23.02-.02.1-.02.1-.01.28.58,1.07.94.77,1.77h0s-.02,0-.04,0h0c-.04-.2-.09-.4-.13-.59-.03,0-.08.02-.08.02.02.21,0,.44.07.63.21.54-.3,2.1-.72,2.69-.58.8-1.28,1.44-2.03,2.08-.62.52-.88,1.4-1.08,2.22-.15.62-.35,1.23-.53,1.84,0,0-.08,0-.1-.02-.05-.04-.09-.1-.13-.15-.01.11-.07.23-.03.33.09.23.23.44.32.67.08.18.12.38.18.57h0s-.01.07-.02.08c-.26.07-.02.15,0,.13.09-.21.29-.01.42-.13.15-.14.36-.23.54-.34,0,0,0,0,0,0,.21-.25.45-.06.67-.03-.18.1-.35.21-.53.31-.05.03-.11.05-.16.08.02.01.03.03.05.03.11.02.22.04.33.06-.03-.1.04-.19.1-.11.11.14.37-.21.36.12,0,.21-.22.16-.36.17-.34.03-.68.1-1-.07-.03-.01-.12.05-.15.1-.03.05-.03.13-.04.19.04-.04.09-.12.13-.12.24,0,.51-.04.7.06.27.14.51-.01.76.05.06.01.11.04.16.07-.04.02-.09.04-.13.06-.62.18-1.25.08-1.88.02-.31-.03-.64.11-.96.16-.05,0-.1-.05-.16-.08.07-.05.14-.12.22-.14.38-.1.76-.2.51-.74-.04-.08-.04-.19-.03-.28.06-.48-.15-.72-.45-.99-.2-.17-.17-.59-.28-.88-.09-.24-.21-.49-.35-.7-.18-.28-.39-.56-.7-.1-.38.56-.67,1.16-.9,1.79-.05.13-.16.29-.38.23-.01,0-.04,0-.04,0,0,.04-.01.07-.01.11-.01,1.34.44,1.78,1.76,1.73,0,0,.01,0,.02,0,.15.21-.32.12-.16.33.02.03.14,0,.14.01.01.19-.08.17-.22.13-.28-.08-.57-.15-.86-.22-.02,0-.04,0-.07.02.02.03.05.07.07.1.26.25.52.5.78.75h-.29c-.52-.4-.93-.99-1.71-.9-.06,0-.14-.1-.2-.15,0,0,0,0,.01,0,0,0,0,0-.01,0-.09.02-.17.05-.26.07.1-.18.27-.17.45-.2.12-.02.27-.12.33-.23.13-.25.04-.52-.04-.76-.1-.31-.24-.61-.37-.91,0-.02,0-.05,0-.08.02.02.04.04.06.04.06,0,.12,0,.18,0,0-.05,0-.14-.02-.15-.31-.13-.15-.4-.21-.58-.14-.44.09-.92-.24-1.32-.1-.12-.12-.32-.12-.49,0-.29.06-.6-.3-.69-.27-.07-.51.12-.73.27-.19.12-.36.26-.55.39-.02.01-.05.02-.07.03,0-.02-.01-.04-.01-.05.01-.06.03-.12.05-.19-.07.05-.14.11-.21.16-.09.07-.19.15-.28.22.04-.13.08-.26.12-.4.03-.09.05-.18.08-.26-.07.06-.14.11-.2.17-.16.14-.32.29-.49.43-.07.06-.16.09-.25.14.03-.05.06-.11.08-.16,0-.01,0-.03,0-.04-.05.03-.11.06-.16.1-.08.05-.17.11-.25.16.03-.08.07-.16.09-.25.04-.15.08-.3.11-.46-.15.08-.33.14-.45.25-.48.44-.84.97-1.11,1.56-.02.05-.07.09-.1.14.02-.06.03-.12.05-.17.21-.55.41-1.09.62-1.64.02-.03.04-.06.06-.1.01-.01.02-.02.03-.03,0,0,0,0,0,0-.01.01-.02.02-.03.03-.02.03-.04.06-.06.1ZM36.69,58.63s-.02.02-.03.03h0s0,0,0,0c.01-.01.02-.02.03-.03l.03-.03c.11.07.39.07.09.29-.2.15-.38.34-.52.54-.12.17-.37.25-.34.51.16-.14.33-.29.49-.43.11-.1.2-.2.31-.3-.08.1-.17.2-.23.31-.1.17-.18.36-.26.54h0c.1-.09.23-.16.3-.27.11-.18.14-.09.18.03.48-.47,1.2-.71,1.37-1.47h0c.01-.05.03-.11.04-.17-.08,0-.19-.06-.25-.02-.15.1-.28.22-.41.34-.14.14-.27.28-.41.42.11-.15.22-.31.33-.46.02-.03.05-.05.07-.08.06-.07.12-.14.18-.22-.08,0-.16,0-.25,0-.18,0-.35.02-.53.04-.05,0-.1.06-.13.1-.01.01,0,.08.03.09.32.13-.1.12-.03.2-.01.01-.02.02-.03.03ZM38,59.17s0,0,0,0h0ZM37.93,59.27s0,0,0,0h0ZM41.69,55.83h0s-.02-.02-.03-.03c0-.02-.02-.04-.03-.07.21-.12.36-.06.45.16.05.13.17.24.24.11.16-.31-.06-.59-.25-.76-.14-.12-.48-.15-.64.09-.15.21.11.28.2.41,0,.02.02.04.03.07.01.01.02.02.03.03ZM41.15,69.96s0,0,0,0c-.01.01-.02.02-.03.03l-.08.09s.02.01.03.02c.02-.04.03-.07.05-.11.01-.01.02-.02.03-.03ZM41.82,68.72s.02-.02.03-.03c.01-.01.02-.02.03-.03h0s0,0,0,0c-.01.01-.02.02-.03.03-.01.01-.02.02-.03.03h0ZM41.37,68.4s.02-.02.03-.03c0,0,0,0,0,0-.01.01-.02.02-.03.03h0ZM42.39,67.86s.02-.02.03-.03c.01-.01.02-.02.03-.03,0,0,0,0,0,0-.01.01-.02.02-.03.03-.01.01-.02.02-.03.03-.01.01-.02.02-.03.03,0,0,0,.02,0,.02,0,0,0-.02,0-.03.01-.01.02-.02.03-.03ZM43.73,62.68s-.02-.02-.04-.03c-.04-.22-.08-.45-.12-.67-.04.01-.09.02-.13.03h0c.08.21.17.42.25.63.01.01.02.02.03.03.01.01.02.02.03.03,0,0,0,0,0,0-.01-.01-.02-.02-.03-.03ZM42.9,67.42s0,0,0,0c-.01.01-.02.02-.03.03-.09.08-.19.16-.28.24l.03.03c.08-.09.16-.19.25-.28.01-.01.02-.02.03-.03ZM40.96,53.44h0s-.02-.02-.03-.03l-.03-.03s0,0,0,0c.01.01.02.02.03.03.01.01.02.02.03.03ZM42.27,66.97s.02-.02.03-.04c.02,0,.04-.02.06-.03h0s-.04.02-.06.03c0,.01-.02.02-.03.03h0ZM41.6,66.56s0-.02,0-.03c0,0-.02,0-.03,0,0,.01,0,.02,0,.03.01,0,.02,0,.03,0ZM53.6,57.84s0,0,0,0h0ZM42.27,68.03h-.01s.01,0,.01,0h0ZM41.72,54.4h0s-.02-.04-.03-.07c-.02-.03-.05-.06-.07-.09,0-.02-.02-.05-.03-.07h0s.02.04.03.07c.02.03.05.06.07.09,0,.02.02.04.03.07ZM43.32,70.03h0s0,0,0,0h0ZM41.57,67.45s0,0,0,0c0,0,0,0,0,.01-.01.01-.02.02-.03.04-.02,0-.04,0-.06,0h0s.04,0,.06,0c.01-.01.02-.02.03-.04ZM43.06,65.6s0,0,0,0c0,0,0,0,0-.01.01,0,.03,0,.04,0,.06,0,.11-.01.17-.03.01,0,.01-.06.01-.09-.06.03-.12.06-.18.09-.01.01-.02.02-.04.03ZM41.82,67.26h0s0,0,0,0c-.02,0-.05.02-.07.03-.03.02-.06.04-.09.07h0s.06-.05.09-.07c.02,0,.05-.02.07-.03ZM40.83,65.57s-.02-.02-.03-.03c.03-.05.07-.11.1-.16.04-.08.04-.22-.07-.16-.12.06-.17.24-.25.36-.08.13-.15.27-.22.41.01-.06.02-.13.03-.19-.02.02-.06.03-.07.05-.2.44-.42.88-.59,1.33-.06.15,0,.35,0,.52.06-.15.13-.3.18-.45.14-.41.14-.96.65-1.06.23-.05.35-.08.44-.27,0-.01,0-.02,0-.03.07-.11.09-.21.24-.31.34-.21.61-.55.91-.84h0c-.06-.01-.13-.05-.18-.03-.46.18-.87.41-1.03.93-.02.07-.11.11-.17.17.03-.06.05-.12.08-.18,0-.02,0-.04,0-.06ZM43.31,66.81h0s0,0,0,0c0,.02-.02.05-.03.07-.05.1-.23.15-.13.32h0c.06-.08.13-.15.19-.22,0,0,0,0,.01,0,0,0,0,0,0-.01,0,0,0,.01,0,.02-.03,0-.06.02-.09.02,0-.04.01-.08.02-.12,0-.02.02-.05.03-.07ZM41.66,54.46h0s-.02-.04-.03-.06c-.01-.01-.02-.02-.03-.03-.03-.05-.06-.1-.1-.16h0c.03.05.06.1.1.16.01.01.02.02.03.03,0,.02.02.04.03.06ZM45.67,73.85h0s.01.01.02.02c0,0-.01-.01-.02-.02ZM43.51,66.09s-.01.01-.02.02c0,0,0,0,0,.01,0-.01,0-.02.01-.03h0s0,0,0,0ZM41.88,56.15l-.03-.03s0-.04,0-.06h0s.04-.07.05-.1c-.03,0-.05,0-.08,0,0,.06.02.11.03.17.01.01.02.02.03.03.02.02.04.04.06.06h0s-.04-.04-.06-.06ZM50.61,64.33s0,0,0,0c0,0,0-.02-.01-.03,0,0,.01.02.02.03ZM52.61,60.51h0s.01.03.02.04c0,0,0,0,.01,0-.01-.01-.02-.02-.03-.03ZM50.13,74.17s.03-.02.05-.03c0,0,0-.01-.01-.02-.01.02-.02.03-.03.05h0ZM41.21,54.97h0s-.03-.06-.05-.08c0,0,0,0-.01,0,.02.03.04.05.06.08ZM44.3,62.23s0,0,0,0c0-.03,0-.07.01-.1,0,0-.02,0-.02,0,0,.03,0,.07.01.1ZM39.68,65.73s.07-.04.1-.06c0,.05,0,.11,0,.16,0,.03-.02.06-.02.09,0,0,0,0,.01,0,0-.03,0-.06,0-.09.02-.11.04-.21.07-.32-.02.05-.04.09-.06.14-.01-.05-.02-.11-.03-.16-.02.08-.04.17-.06.25-.02.08-.03.16-.05.24,0,0,.02,0,.02,0,0-.08.02-.16.03-.24ZM40.86,67.22c.03-.07.05-.14.08-.21,0,0-.02-.01-.04-.02-.01.08-.03.15-.04.23,0,0,0,.02-.01.02,0,0,0,0,0,.01,0-.01,0-.02,0-.04ZM43.7,64.27c0-.05,0-.11,0-.16h0c-.16.06-.12.18-.09.29-.07.02-.14.05-.21.07.05-.11.09-.22.14-.33h0c-.24.1-.53.15-.57.5-.02.18.02.4-.19.52.02-.07.04-.13.06-.2,0,0-.07-.04-.09-.03-.18.14-.47.17-.6.29-.48.46-1.05.86-1.22,1.56,0,.03,0,.06-.01.09.02-.02.06-.04.07-.07.18-.56.61-.89,1.08-1.18.16-.1.51-.2.53-.16.16.26-.14.34-.27.49-.07.08-.17.13-.25.2-.19.15-.21.32-.12.28.2-.09.37-.24.55-.37.02-.01.04-.02.07-.03.17-.27.52-.42.51-.79,0-.01,0-.02,0-.03.03-.04.06-.08.1-.13h0c.06.03.16.09.17.08.23-.33.23-.17.18.08.01,0,.03,0,.03,0,.04-.14.09-.27.09-.41,0-.04-.16-.08-.25-.11h0c.06-.1.13-.21.19-.31.03-.04.06-.09.09-.13h0ZM49.87,59.14c.15.12.24.02.33-.08.01-.01,0-.09-.02-.09-.16-.04-.25.04-.3.18h0ZM51.46,64.93c.17-.02.22-.15.24-.28,0-.05-.05-.11-.08-.16-.05.15-.11.3-.16.45h0ZM36.85,55.93s0-.07.01-.1c-.15,0-.29-.01-.44-.02,0,.05,0,.13.02.15.14.11.28.1.41-.04h0ZM37.3,60h0c-.09.08-.17.17-.27.24-.05.04-.16.04-.18.08-.04.09-.04.19-.05.29,0,0,.11.02.11.02.06-.25.48-.29.38-.63ZM44.33,63.6c.09-.06.18-.12.27-.19,0,.01.02.03.02.03-.2.23-.38.47-.61.68-.2.19-.32.39-.28.67,0,.03.04.06.07.09.09-.11.19-.22.28-.34.08-.1.15-.21.22-.32,0,.09,0,.19.02.28,0,.02.03.03.05.05.03-.04.07-.07.09-.12.16-.31.33-.6.77-.5.04,0,.11-.08.15-.13.02-.02-.02-.08-.03-.12-.3.11-.21-.16-.29-.28-.06-.09-.15-.16-.21-.25-.18-.26-.21.08-.31.15-.09.07-.15.19-.22.29h0ZM51.5,62.9c.03.17.06.33.1.48.02.08.06.15.09.23.04-.07.08-.13.12-.2.03-.05.06-.11.08-.17.01.07.02.14.04.21.06.18.14.36.21.54.03-.05.09-.11.09-.15-.04-.31-.05-.64-.16-.93-.05-.13-.32-.18-.49-.26-.02.09-.05.18-.07.26ZM52.87,63.85c.13-.54-.25-.78-.34-1.12,0-.02-.09-.05-.11-.03-.04.02-.08.08-.08.12-.02.17-.05.35-.04.51.02.15.09.29.15.42,0,.01.1,0,.12-.02.04-.03.05-.09.07-.14.01.06.01.12.04.18.03.06.07.12.1.18.06-.07.11-.14.08-.1ZM52.59,65.22c.4.18.19.47.13.75.02-.01.04-.02.06-.04.36-.26.14-.67.24-1,.01-.04,0-.09,0-.13-.02.04-.04.08-.06.12-.05.08-.11.15-.17.22,0,0-.03-.02-.03-.03.03-.09.08-.17.1-.25.03-.13.04-.26.07-.4-.04.01-.12.01-.12.04-.08.22-.14.44-.22.71ZM53,63.12c.04.35.07.63.1.9,0,.05.05.09.08.13.06-.24.15-.47.16-.71,0-.16-.03-.42-.34-.32ZM38.23,67.33c.05.26-.06.64.22.62.25-.03.1-.41.1-.63,0-.11-.17-.22-.27-.32-.02.13-.04.26-.05.34ZM51.49,63.01c-.08-.19.01-.4-.21-.47-.01,0-.09.11-.08.15.03.19.08.38.12.56.06-.09.12-.18.17-.25ZM52.26,65.25c.06.06.09.1.13.15.07-.17.15-.33.21-.51,0-.03-.08-.08-.12-.13-.07.16-.14.32-.22.49ZM40.91,68.47s-.01-.05-.03-.09c-.06.28-.11.56-.17.84,0,.02,0,.04.01.06.19-.23.16-.5.19-.81ZM52.05,65.19c-.06-.05-.09-.08-.13-.11-.07.09-.14.18-.2.29,0,.02.06.08.1.12.07-.09.14-.18.23-.29ZM41.14,65.12c.15-.16.26-.28.37-.41,0,0-.03-.04-.04-.03-.17.04-.32.11-.37.3,0,.02,0,.05.03.14ZM50.43,58.96c-.1.12-.17.21-.24.31,0,0,.06.05.09.08.07-.09.14-.18.21-.28,0-.01-.03-.05-.06-.11ZM49.28,60.24c.15-.2.27-.35.39-.51,0,0-.03-.03-.05-.04-.11.14-.22.29-.33.43-.01.01,0,.04,0,.11ZM51.15,62.74c-.16-.15-.2-.19-.25-.23-.03.05-.09.1-.09.15,0,.05.05.15.09.15.07,0,.14-.04.25-.07ZM40.97,58.05c-.05-.03-.11-.08-.12-.07-.06.06-.11.13-.16.2,0,0,.05.06.08.09.06-.07.11-.13.19-.22ZM38.69,67.57c.02.06.05.12.07.18.03-.04.08-.08.07-.11-.01-.09-.05-.17-.08-.26-.02.06-.04.12-.06.19ZM50,64.08c.03.06.06.12.09.17.02-.05.06-.11.06-.16,0-.05-.05-.1-.07-.15-.03.04-.05.09-.08.14ZM52.68,64.55c-.08-.05-.12-.09-.16-.1-.03,0-.07.04-.11.06.04.03.07.08.11.09.03,0,.08-.02.16-.05ZM34.94,55.84c-.05-.03-.07-.04-.08-.04-.08.05-.16.11-.24.16,0,0,.02.04.02.04.09-.05.18-.1.3-.16ZM45.86,74.79c-.07-.06-.11-.1-.15-.13,0,0-.06.05-.06.07.02.04.05.09.08.11.01.01.06-.02.13-.05ZM52.19,64.94c-.06-.04-.09-.08-.14-.09-.02,0-.05.04-.07.06.04.04.08.08.12.11,0,0,.05-.04.09-.07ZM39.47,65.97s-.07-.06-.1-.1c-.02.02-.05.05-.05.06.03.07.07.13.1.19.01-.04.03-.09.05-.16ZM37.26,54c.07-.02.13-.04.19-.05-.04,0-.09-.02-.13-.02-.1,0-.2,0-.3.01.08.02.16.04.23.06ZM46.4,75.05c-.07-.03-.11-.06-.16-.07,0,0-.03.04-.05.06.04.02.08.05.12.07.02,0,.04-.03.09-.05ZM39.89,64.97c-.03.06-.06.1-.05.12.02.03.05.06.08.09.02-.03.05-.06.04-.08,0-.03-.03-.06-.07-.12ZM41.38,69.5c-.05.06-.08.1-.1.15,0,0,.03.03.04.04.03-.03.06-.07.09-.1,0-.01-.01-.04-.03-.08ZM38.69,67.06s.03.11.05.18c0-.02.02-.05.02-.07,0-.09-.02-.18-.04-.28,0,.05-.02.1-.03.17ZM45.68,73.21s-.06-.08-.08-.12c-.01.02-.03.05-.03.06,0,.04.03.08.05.12.02-.02.04-.04.06-.07ZM50.71,63.4s-.06.06-.08.08c.03.02.05.05.08.06,0,0,.04-.03.04-.03,0-.03-.02-.06-.04-.11ZM39.57,67.42s-.03.08-.03.1c0,.02.03.03.05.05.02-.02.05-.04.04-.07,0-.02-.03-.05-.06-.09ZM37.99,67.79s.02-.07.02-.1c0-.03-.03-.06-.05-.09-.02.03-.05.06-.05.07.01.04.05.06.08.11ZM49.3,74.67s-.03-.06-.04-.08c-.02.02-.06.04-.07.07,0,.01.03.04.05.07.02-.02.03-.04.05-.06ZM35.85,59.93s-.05-.02-.06-.01c-.03.02-.05.05-.07.08,0,0,.02.03.04.05.02-.03.04-.05.1-.11ZM37.35,57.84c-.05,0-.07-.02-.08-.01-.04.02-.07.05-.1.07.01,0,.03.02.04.02.04-.02.07-.04.14-.08ZM46.16,74.83s-.07-.03-.09-.03c-.02,0-.04.02-.06.04.02.02.03.05.05.06,0,0,.04-.02.1-.07ZM41.43,67.4s-.04-.04-.05-.04c-.02.02-.05.04-.06.06,0,0,.02.03.03.04.02-.02.04-.04.08-.07ZM50.39,74.33s-.04.03-.04.05c0,.01.02.03.03.05.02-.01.04-.03.05-.04,0,0-.02-.03-.04-.05ZM49.44,74.42s-.04.06-.04.08c0,.01.02.03.03.04.02-.02.04-.03.05-.05,0-.02-.02-.04-.04-.08ZM40.97,58.3c-.09,0-.12,0-.14,0-.03,0-.05.03-.08.04.02,0,.05.01.07.01.03,0,.05-.02.14-.06ZM40.4,65.16s-.03-.02-.04-.01c-.03.03-.05.06-.08.1,0,0,.02.02.03.02.02-.03.05-.06.08-.11ZM50.53,74s.03-.05.03-.06c0-.02-.03-.03-.04-.04-.01.01-.03.03-.03.04,0,.02.02.03.04.06ZM49.1,73.54s-.03-.04-.05-.05c0,0-.03.02-.03.02,0,.02.01.03.02.05.02,0,.03-.02.06-.03ZM52.09,57.45s-.03-.04-.04-.05c0,.02-.02.04-.02.06,0,.02,0,.03.02.05.01-.02.03-.04.04-.06ZM43.81,62.07s-.06-.04-.07-.05c0,.01-.02.03-.02.03,0,.02.02.03.04.04,0,0,.03,0,.05-.02ZM49.33,63.1s-.01-.03-.02-.05c0,.02-.02.03-.02.05,0,.02.01.03.02.05,0-.01,0-.03.02-.05ZM34.92,60.89s-.03-.03-.03-.03c-.02,0-.03.02-.05.03,0,.01.02.03.03.04.02-.01.03-.02.05-.04ZM51.56,64.17s-.04.02-.04.03c0,.01.01.03.02.04.01,0,.03,0,.04,0,0-.02-.01-.03-.03-.06ZM45.91,74.59s.02-.03.02-.04c0-.01-.02-.03-.03-.03-.01,0-.02.02-.03.03.01,0,.02.02.04.03ZM49.4,63c0,.06,0,.08,0,.11,0,.01.01.02.02.03,0-.02,0-.05.01-.07,0-.01,0-.02-.02-.07ZM48.65,74.98s-.04-.01-.05-.01c-.01,0-.02.02-.03.03.01,0,.02.02.03.01.01,0,.02-.01.05-.03ZM43.74,63.9s-.02-.02-.02-.02c0,0-.02.01-.02.02,0,0,.01.02.02.02,0,0,.01-.01.02-.02ZM45.02,64.17s0-.02.01-.02c0,0-.02-.01-.02-.01,0,0-.01.01-.02.02,0,0,.01,0,.02.01ZM44.28,63.4s-.01-.01-.02-.01c0,0-.01,0-.02.01,0,0,.01.01.02.01,0,0,.01,0,.02-.02ZM45.41,62.99h-.02s0,0,0,.01c0,0,0,0,.01,0,0,0,.01-.01.02-.02ZM41.86,64.54s-.02.02-.03.03c0,0,.02.02.02.02.01,0,.02-.02.04-.02,0,0-.01-.01-.02-.02ZM50.75,61.98s-.01-.02-.02-.02c0,.01-.02.02-.02.03,0,0,0,.01.01.02,0-.01.02-.02.02-.03ZM40.18,62.81s0-.01-.01-.02c0,0-.01.01-.02.02,0,0,0,.01.01.02,0,0,.01-.01.02-.02ZM49.83,74.77s0,0,0-.01c0,0,0,0-.01,0,0,0,0,.01,0,.02,0,0,0,0,.01,0ZM39.3,66.19v-.03s-.01,0-.02,0c0,0,0,.01,0,.01,0,0,.01,0,.02.01ZM50.43,74.88s-.01-.02-.02-.02c-.01,0-.02,0-.03.01,0,0,.01.02.02.02,0,0,.02,0,.03,0ZM45.79,74.32s-.02,0-.02.01c0,0,0,.02.01.02,0,0,.02,0,.02-.01,0,0,0-.02-.01-.03ZM50.33,74s0,.02,0,.02c0,0,.01,0,.01,0,0,0,0-.02,0-.02,0,0,0,0-.01,0ZM40.6,57.69s0-.01,0-.02c0,0,0,0,0,.01,0,0,0,0,.01,0ZM35,60.79s0,0,0,0c0,0,0,.01,0,.02,0,0,0,0,.01,0,0,0,0,0,0-.01ZM43.97,61.09s0-.01.01-.02c0,0,0,0-.01,0,0,0,0,0,0,.02ZM44.36,62.39s0,0,0-.01c0,0,0,.01,0,.02h0ZM39.42,66.34h0s0,0-.01,0c0,0,0,0,0,0ZM51.03,64.86h0s0,0,0,0h0ZM50.69,58.32h0s0,.01,0,.01h0Z"/>
          <path class="cls-2" d="M51.53,60.9c-.1.04-.17.07-.23.09,0,0-.04-.05-.03-.06.04-.04.08-.08.13-.1.02,0,.07.03.13.06Z"/>
          <path class="cls-2" d="M51.33,74.41s-.09-.06-.13-.09c.03-.02.07-.05.1-.05.05,0,.1.04.14.07-.03.02-.06.04-.11.07Z"/>
          <path class="cls-2" d="M47.85,75.56c-.07-.06-.13-.11-.19-.16.02-.02.04-.06.05-.05.07.04.13.08.19.13,0,0-.02.04-.05.09Z"/>
          <path class="cls-2" d="M53.66,63.88c0,.08,0,.16.01.24-.01-.01-.04-.03-.04-.04,0-.07,0-.13,0-.2,0,0,0,0,0,0,.01,0,.02,0,.04,0h0Z"/>
          <path class="cls-2" d="M51.73,60.48s-.04.09-.06.12c-.02-.03-.04-.07-.04-.1,0-.04.02-.07.03-.11.02.03.04.06.07.09Z"/>
          <path class="cls-2" d="M40.32,70.88c.03-.05.07-.1.1-.15.01.03.03.06.03.08-.02.06-.05.11-.07.16-.02-.03-.03-.05-.05-.09Z"/>
          <path class="cls-2" d="M40.08,68.16s-.04.05-.06.08c-.01-.02-.04-.04-.03-.05,0-.03.03-.05.05-.07.01.01.02.03.04.04Z"/>
          <path class="cls-2" d="M40.14,68.42s-.04.03-.06.04c0-.02-.02-.03-.02-.05,0,0,.02-.03.03-.03.02,0,.03.02.05.04Z"/>
          <path class="cls-2" d="M51.25,60s-.03-.04-.02-.05c0-.02.02-.03.03-.04,0,.01.02.02.02.03,0,.02-.02.03-.03.06Z"/>
          <path class="cls-2" d="M40.59,70.62s-.03-.03-.02-.04c0-.01.02-.02.03-.03,0,0,.02.02.02.03,0,.01-.01.02-.03.04Z"/>
          <path class="cls-2" d="M51.02,59.31s.02,0,.03-.01c0,0,0,.02,0,.03,0,0-.01,0-.01,0,0,0-.01-.01-.02-.02Z"/>
          <path class="cls-2" d="M40.37,70.21s-.01.01-.02.02c0,0,0-.01-.01-.02,0,0,0,0,0,0,0,0,.01,0,.02.01Z"/>
          <path class="cls-2" d="M53.73,57.87l.03.03s-.01,0-.02,0c0-.01,0-.03-.01-.04,0,0,0,0,0,0Z"/>
          <path class="cls-2" d="M40.15,68.26s0,0,0,0c0,0,.01,0,.02,0,0,0,0,0,0,.01Z"/>
          <path class="cls-2" d="M44.68,75.22l-.02.02s0,0,0-.01c0,0,.02,0,.03,0h0Z"/>
          <path class="cls-2" d="M40.66,70.46s0,0,0,.01c0,0,0,0-.01,0,0,0,0-.01,0-.02,0,0,0,0,0,0Z"/>
          <polygon class="cls-2" points="35.68 59.4 35.68 59.38 35.67 59.39 35.68 59.4"/>
          <path class="cls-2" d="M53.95,58.37s.02.02.03.04c0,0,0,0,0,0-.01,0-.02,0-.04,0,0,0,0,0,0,0,0-.01,0-.03,0-.04,0,0,0,0,0,0Z"/>
          <path class="cls-2" d="M36.44,65.79s0,0,0,0c0,0,0,0,0,0Z"/>
          <path class="cls-2" d="M37.39,67.16s0,0,0,0,0,0,0,0Z"/>
          <path class="cls-2" d="M40.23,67.19s0,0,0,0,0,0,0,0Z"/>
          <path class="cls-2" d="M49.36,74.17s0,0,0,0c0,0,0,0,0,0Z"/>
          <path class="cls-2" d="M35.67,59.39s0,0,0,0,0,0,0,0Z"/>
          <path class="cls-2" d="M36.02,58.95s0,0,0,0,0,0,0,0Z"/>
          <path class="cls-2" d="M44.69,75.22s0,0,0,0c0,0,0,0,0,0Z"/>
          <path class="cls-2" d="M38.1,58.34s0,0,0,0c0,0,0,0,0,0Z"/>
          <path class="cls-2" d="M42.96,65.32s-.02.07-.03.1c-.01,0-.02-.01-.04-.02.02-.03.04-.05.07-.08h0Z"/>
          <path class="cls-2" d="M42.58,66.02s-.04.02-.06.03c-.02,0-.04,0-.06,0,0,0,0,0,0,0,.04-.03.08-.06.13-.09h0s0,.04,0,.06Z"/>
          <polygon class="cls-2" points="42.77 65.51 42.77 65.5 42.78 65.51 42.77 65.51"/>
          <path class="cls-2" d="M43.41,64.71s0,0,0,.01c0,0,0,0,0-.01,0,0,0,0,0,0Z"/>
          <path class="cls-2" d="M42.96,65.32s.02-.02.03-.03c0,0,0,0,0,0-.01.01-.02.02-.03.03,0,0,0,0,0,0Z"/>
          <path class="cls-2" d="M42.58,65.95s0,0,0,0c0,0,0,0,0,0Z"/>
          <path class="cls-2" d="M42.43,66.08s.02-.02.03-.03c0,0,0,0,0,0-.01.01-.02.02-.03.03h0Z"/>
          <path class="cls-2" d="M42.42,66.08s-.02.02-.03.03h0s.02-.02.03-.03c0,0,0,0,0,0Z"/>
          <path class="cls-2" d="M42.39,66.11s0,0,0,0c0,0,0,0,0,0Z"/>
          <path class="cls-2" d="M43.19,65.06s0,0,0,0,0,0,0,0Z"/>
          <path class="cls-2" d="M43.09,65.19s0,.02,0,.03c-.01,0-.02,0-.03,0,0,0,0,0,0,0,.01-.01.02-.02.03-.03Z"/>
          <path class="cls-2" d="M43.03,65.25s.02-.02.03-.03c0,0,0,0,0,0-.01.01-.02.02-.03.03h0Z"/>
          <path class="cls-2" d="M43.03,65.25s-.02.02-.03.03c0,0,0,0,0,0,.01-.01.02-.02.03-.03,0,0,0,0,0,0Z"/>
          <path class="cls-2" d="M40.8,65.54s.02.02.03.03c0,.02,0,.04,0,.07-.01-.03-.02-.07-.03-.1Z"/>
          <path class="cls-2" d="M42.14,64.74s0,0,0,0c0,0,0,0,0,0Z"/>
          <path class="cls-2" d="M40.99,65.89s0,.02,0,.04c0-.01,0-.02,0-.04Z"/>
          <path class="cls-2" d="M41.5,55.54s0,0,0,0,0,0,0,0Z"/>
          <path class="cls-2" d="M38.33,67.59s0,0,0,.01c0,0-.01,0-.02,0,0,0,0-.01,0-.01,0,0,0,0,.01,0Z"/>
          <path class="cls-2" d="M37.3,60s0,0,0,0,0,0,0,0Z"/>
          <path class="cls-2" d="M43.44,62.01s0,0,0,0,0,0,0,0Z"/>
          <path class="cls-2" d="M36.85,55.93s-.01-.01-.02-.02c0,0,.01.02.02.02,0,0,0,0,0,0Z"/>
          <path class="cls-2" d="M43.16,67.2s0,0,0,0c0,0,0,0,0,0Z"/>
          <path class="cls-2" d="M43.09,65.61s0-.02,0-.04c0,.01,0,.02,0,.04Z"/>
          <path class="cls-2" d="M41.85,56.05s0,0,0,0c0,0,0,0,0,0Z"/>
          <path class="cls-2" d="M39.78,65.67s0-.02,0-.04c0,.01,0,.02,0,.04Z"/>
          <path class="cls-2" d="M41.6,66.56s-.02,0-.03,0c0-.01,0-.02,0-.03.01,0,.02,0,.03,0,0,.01,0,.02,0,.03Z"/>
        </g>
        <path class="cls-8" d="M61.62,75.41s.06.01.08.01c.05.05.1.05.15,0,.07-.06.08-.03.35-.17,0,0,.07-.04.13-.07.02,0,.05-.02.05-.02.02,0,.03-.01.05-.02.03,0,.06,0,.08-.03.14-.06.27-.12.37-.25.04-.06.09-.09.14-.11,0,0,0,0,.01.01.01-.01.02-.02.03-.03.08-.02.17-.02.27-.02.01,0,.02,0,.03,0,.06.03.12.07.18.1.04.04.07.1.09.14.04.09.09.15.15.21.03.03.05.14.12.05.02-.03.02-.09,0-.13-.09-.28-.23-.54-.24-.85,0-.21-.02-.23.18-.2.12.02.24.01.36.01.02,0,.04-.03.06-.05-.03-.01-.05-.04-.08-.04-.06,0-.13.02-.18,0-.19-.07-.43-.14-.46-.36-.03-.23-.15-.45-.11-.7.03-.2.02-.25.08-.26.03,0,.04,0,.09,0,.34.11.54-.16.88-.1.03,0,.07-.05.11-.07.4-.14.69-.46,1.08-.63.14-.06.23-.2.19-.38-.04-.14.05-.22.14-.31.15-.15.26-.31.23-.52-.1-.07-.21.02-.27-.08.09-.19.16-.53.14-.69-.08.08-.16.15-.23.23-.05.05-.11.05-.17.05-.06,0-.12,0-.12-.09,0-.06.03-.1.08-.09.17.05.17-.1.25-.18.17-.17-.16-.26-.05-.41.03-.04.02-.15-.05-.15-.24-.02-.21-.25-.32-.37,0,0,.02,0,.04,0,.02,0,.03-.03.04-.05,0,0-.02-.02-.03-.03-.02.01-.04.03-.05.04,0,.02,0,.03,0,.04-.09-.01-.18.03-.26-.03-.05-.17.04-.36-.05-.53-.08.04-.05.11-.05.17,0,.07-.02.13-.1.11-.17-.04-.01-.09,0-.13.08-.27.08-.26.31-.17.13.05.21.11.26.26.05.15.16.15.35.04,0,0,0,.02,0,.04,0,.02.03.03.05.04,0,0,.02-.02.03-.03-.01-.02-.03-.04-.04-.05-.02,0-.03,0-.04,0,.01-.06-.03-.13.03-.17.08-.05.13.01.19.06.07.06.06.13.06.2h.57c-.08-.42.1-.72.36-.98.11-.11.18-.23.18-.39,0-.1.1-.17,0-.3-.09-.12.12-.22.09-.37-.03-.14.03-.25.16-.28.21-.06.22-.25.29-.4.02-.03-.03-.08-.09-.05-.04.08-.09.08-.15.06-.04-.01-.04-.05-.02-.06.04-.02.08-.02.12-.03.03,0,.04,0,.05,0,0-.04.02-.06.03-.08.12-.25.02-.51.06-.76.02-.13-.07-.19-.14-.27-.03-.03-.05-.08-.05-.12.02-.18-.05-.36.04-.54.09-.17.09-.37.01-.52-.07-.15-.05-.23.03-.36.15-.26.13-.41.02-.73-.02-.05-.01-.12-.01-.18,0-.13-.04-.22-.11-.33-.22-.35-.49-.63-.75-.94-.21-.25-.43-.42-.76-.36-.2-.38-.37-.47-.67-.35-.36.15-.66.38-.84.74-.12.23-.19.48-.26.73-.1.34-.08.71-.21,1.04-.01.03,0,.06,0,.09.06.3.04.44-.14.7-.05.08-.07.13,0,.19.05.04.03.09-.01.09-.2-.01-.11.2-.17.29,0,.01,0,.02-.01.02.03.04.02.06.01.06-.02-.01-.05-.02-.05-.04,0,0,0-.02,0-.02-.09,0-.13.05-.13.08-.02.2-.2.16-.33.21q.23.14.07.32s-.04.04-.06.06c.05.08.18.02.22.13.2-.07.22.16.37.2.07.02-.04.17.04.24-.06.04-.11.04-.16,0-.09-.09-.19-.09-.28-.02-.18.14-.22-.03-.29-.13-.12,0-.14-.15-.24-.18-.09.12-.02.23.07.41-.28-.16-.59-.14-.69-.48-.04-.13-.21-.16-.34-.19v.16q.3.08.23.46c-.05-.06-.12-.14-.18-.08-.19.18-.25.03-.32-.1,0,0,.02,0,.04,0,.02,0,.03-.03.04-.05,0,0-.02-.02-.03-.03-.02.01-.04.03-.05.04,0,.02,0,.03,0,.04-.12,0-.23,0-.35,0-.06,0-.11,0-.08.09,0,0,0,0,0,0,.02,0,.03.03,0,.03.03.04.02.06.01.06-.02-.01-.05-.02-.05-.04,0,0,0-.02,0-.02-.08,0-.11.08-.13.07-.08-.04-.13-.12-.2-.18-.09-.08-.14.18-.25.02-.04-.06-.17-.05-.24.02-.02.02-.01.06,0,.09.01.03.23.11.27.1.04-.01.08-.04.12-.04.05,0,.08.03.07.09.05,0,.09,0,.07.06,0,.02-.05.02-.07.03-.03.11-.09.19-.22.19-.06,0-.14-.02-.15.06-.03.22-.19.15-.26.09-.17-.15-.38-.14-.62-.16q.22-.13.26-.44s.04.03.06.04c.01,0,.03.03.03.03-.04.05.09.01.04-.01.05-.11-.04-.25.06-.35.03,0,.06,0,.09,0,.05,0,.05.13.13.05.02-.02,0-.08,0-.12-.06-.17-.25-.07-.36-.17.08-.04.11-.15.23-.14.11.01.22,0,.32,0,.13,0,.23-.02.27-.16-.08-.12-.22-.16-.33-.21-.13-.05-.23-.13-.27-.22-.06-.15-.18-.24-.27-.35-.26-.3-.46-.64-.58-1-.09-.3-.22-.51-.36-.81-.21-.44-.56-.77-.91-1.11-.1-.09-.2-.17-.32-.23-.18-.09-.37-.16-.52-.31-.12-.12-.14-.1,0-.19.09-.06.23-.13.15-.23-.08-.09-.14-.37-.38-.17-.05.05-.05-.03-.07-.06-.06-.12-.19-.01-.27-.09-.05-.04-.07.05-.1.1-.06.11-.13.1-.18,0-.05-.1-.09-.2-.14-.3-.11.11,0,.27-.16.43-.05-.09-.09-.16-.14-.26-.02.25-.08.36-.21.52-.07.09-.19.06-.25.17-.07.12,0,.24-.03.36,0,.03-.01.06-.03.08-.08.09-.17.16-.17.31,0,.08-.15.16-.16.25-.01.13-.18.15-.17.3.15-.02.27-.12.43-.11.25.02.24,0,.2.26-.05.31.1.53.3.76.12.13.28.06.4.18.08.08.16-.09.25-.15.07-.05.17-.05.16.06-.02.11.11.15.07.25-.11.31-.12.64-.15.95-.02.36-.17.7-.1,1.07.01.06-.05.07-.06.11-.16.53-.38,1.05-.31,1.63.01.11-.05.18-.08.27.11.08.25-.03.35.07-.02.04-.02.04,0,.2.01.09.03.2,0,.27-.06.11.15.13.06.23-.05,0-.09.02-.13-.03-.04-.06-.1-.09-.16-.06-.08.05-.06.13,0,.19.05.05.05.1.01.16-.05.07-.1.14-.13.22-.14.33-.14.39.06.72,0-.03,0-.06,0-.09,0-.05,0-.09.06-.07.02,0,.03.05.03.08,0,.02,0,.05.02.09,0,0,.01,0,.02,0,.02,0,.03.03,0,.03.03.04.02.06.01.06-.02-.01-.05-.02-.05-.04,0-.01,0-.02,0-.03-.04-.01-.06-.01-.09-.01-.02.14.02.26.09.38.25.43.59.78.93,1.13.14.15.34.34.63.26.11-.03.19.04.28.1.39.28.82.48,1.21.75.29.21.65.34.81.71.05.11.18.22.3.27.08.04.12.06.12.15,0,.02,0,.03,0,.05,0,.27.19.42.41.48.09.03.16.07.23.11.31.15.29.21.23.57-.05.3-.14.59-.22.88-.01.05-.03.08.04.09,0,0,.01,0,.02.01,0,.01,0,.03,0,.03-.01.02-.03.02-.03.02,0,0-.01,0-.02,0-.01,0-.01.02-.03.03,0,0-.01.02-.02.03-.03.03-.16,0-.13.04.22.28-.01.21-.16.23-.05,0-.12.08-.13.13-.05.4-.39.36-.65.42-.19.04-.4.01-.6,0-.24,0-.48-.02-.67.18-.03.03-.14-.02-.12.07,0,.02.02.05.05.07,0,0,0,0,0,0h0s.05.04.08.04c.09.02.22.04.27,0,.01-.01.03-.03.04-.04.38,0,.22-.04.58-.04-.09-.02.35,0,.28,0,.03,0,.05,0,.08,0,.1,0,.22-.04.31.01.05.03.09.09.08.15,0,.04-.04.07-.07.11-.05.05-.17.16-.24.28,0,0-.05.09-.07.23,0,.06,0,.09.02.11.03.02.07.01.08.01,0-.05.01-.09.03-.11.02-.03.05-.04.06-.07.01-.04,0-.05.02-.08.01-.03.03-.03.05-.07.04-.05.01-.08.05-.12.02-.03.06-.05.07-.06.03-.02.03-.01.04-.02.03-.03.02-.06.05-.09.01-.01.03-.02.07-.03.01-.01.02-.02.04-.03,0-.01,0-.02-.01-.03,0,0,.02,0,.03-.02.1-.17.38-.14.41-.37,0-.05.07-.16.13-.16.05,0,.08-.03.12,0,.05.04.22.07.33.07.05,0,.05,0,.09,0,0,0,.03-.02.02-.05-.01-.03-.05-.04-.07-.05-.06-.02-.13-.05-.23-.08-.03,0-.05-.12-.1-.18-.05-.06-.05-.11-.02-.16-.01-.05,0-.09.05-.12,0,0,.01-.01.02-.02,0-.02,0-.04,0-.06,0-.06.02-.1.03-.14.02-.12.04-.17.08-.12.04-.02.1-.03.19-.03.02,0,.05,0,.07,0h0s-.03-.19-.03-.19c-.08-.02-.08-.1-.06-.17,0,0,0-.02,0-.03,0-.02,0-.05.01-.07.12-.36.23-.72.59-.93.18-.1.35-.22.48-.38.04-.05.08-.1.15-.08.11.03.05.12.07.22,0,.02-.02.03-.03.05,0,.01,0,.03,0,.04-.03.05-.05.1-.06.15-.03.17-.02.35-.07.52-.02.11-.06.22-.13.32.03.06.11.12.04.19.01.03.01.07-.04.11-.09.07-.13-.11-.24.03-.07.09-.28.07-.43.07-.04,0-.11-.01-.15,0-.03,0-.04.04-.05.03l-.03.06s.02.04.02.03c.05.01.06,0,.11-.02.11.06.2.07.31.02,0,0,0,0,0,0,.08,0,.17.03.26-.05,0,0,0,0,0,0,.03,0,.07,0,.08.02.05.05,0,.07-.03.09,0,0,0,0,.01,0,.06.06-.02.07-.04.09-.21.23-.49.34-.78.44-.03.01-.07.02-.1.03,0,.03.02.05.03.07l-.05.04M59.48,65.91s.02-.02.03-.03c.02.02.05.03.06.06.03.04.12.06.03.12-.02.02-.09,0-.12-.03-.02-.02-.01-.08,0-.12ZM58.08,66.61s0-.03,0-.04c.02.15.04.28.05.39-.06-.1-.11-.21-.06-.35ZM58.1,67.81c-.03-.1.16-.17.02-.26-.06-.03-.17,0-.14-.12.02-.08.08-.16.18-.17.05.54,0,.54-.06.54ZM58.33,67.81c0-.12,0-.23-.01-.33.03.1.06.2.01.33ZM59.39,67.51s-.04-.16-.06-.13c-.19.21-.28-.06-.42-.07-.03,0-.1-.06-.12-.03-.16.2-.32.02-.48,0,0-.79.07-.93.19-1.01.11.21.22.25.35.1.08-.09.08-.23.2-.29.03.06.06.12.09.2.02-.07.03-.13.07-.18.02-.02.08-.03.12-.02.05.02.06.08.04.12-.04.06-.1.12-.15.17-.2.18-.26.26-.35.45-.14.02-.22-.17-.38-.08-.01.02-.04.04-.04.07,0,.1-.05.27.15.12.07.21.16.22.36.1.13-.08.34-.07.5.09.12.12.11.24.1.37,0,.05-.04.08-.1.07-.03,0-.06-.02-.08-.04ZM59.34,66.7c-.04.06-.07.13-.1.19-.07-.09-.24-.14-.09-.28.03-.03.06-.13.13-.04.03.04.13.04.06.13ZM59.5,67.9s-.02-.02-.03-.03c.02-.01.04-.02.06-.03,0,0,.02.02.03.03-.02.01-.04.02-.06.03ZM59.82,66.4s-.04.04-.06,0c-.04-.08-.13-.05-.23-.1.13-.06.22-.07.29-.02.02.02.01.08,0,.12ZM60.16,68.01s-.09.02-.12-.03c0-.01.02-.06.03-.06.04,0,.09-.02.12.03-.01.02-.02.05-.04.05ZM60.44,66.43s-.02-.04-.03-.06c0,0,.02-.02.03-.03.01.02.02.04.03.06,0,0-.02.02-.03.03ZM60.74,75.96c-.04.06-.09.06-.15.04-.04-.01-.04-.05-.02-.06.04-.02.08-.02.12-.03.04-.01.06,0,.04.04ZM60.91,75.77c-.04.05-.08.11-.13.15-.03.03-.04,0-.04-.04,0,0,0-.02,0-.03-.05.07-.09.07-.12.06-.04-.01-.04-.05-.02-.06.04-.02.08-.02.12-.03,0,0,.02,0,.02,0,0-.02,0-.04.02-.06,0-.07.01-.12.09-.13-.02.04-.03.07-.05.1,0,0,.02,0,.03,0,0,0,0,0,.01,0,.06-.08.07-.07.09-.06-.02.02-.04.05-.06.08.01,0,.03.01.04.02ZM61.06,75.46s-.03-.02-.03-.03c0-.02.02-.04.03-.06.01.01.02.02.03.03-.01.02-.02.04-.03.06ZM61.08,75.37s-.03-.02-.03-.03c0-.02.02-.04.03-.06.01.01.02.02.03.03-.01.02-.02.04-.03.06ZM61.37,65.88s-.02-.04-.03-.06c0,0,.02-.02.03-.03.01.02.02.04.03.06-.01.01-.02.02-.03.03ZM61.52,69.03s0-.07,0-.07c.12-.02.01-.28.21-.22.02,0,.05.05.05.06-.02.12-.09.21-.26.22ZM61.97,69.54c.06-.07.12-.07.19,0-.06.07-.12.07-.19,0ZM62.19,69.85s-.02-.02-.05-.05c.06-.02.07-.03.08-.03.07.02.19-.06.21.09,0,.02,0,.06-.03.08-.11.07-.15-.03-.22-.09ZM62.37,70.4s-.02-.02-.03-.03c.02-.01.04-.02.06-.03,0,0,.02.02.03.03-.02.01-.04.02-.06.03ZM62.64,65.63s.05-.03.07-.03c.11,0,.1.08.07.22-.06-.09-.14-.11-.14-.19ZM62.76,66.34s-.03-.02-.03-.03c0-.02.02-.04.03-.06.01.01.02.02.03.03-.01.02-.02.04-.03.06ZM62.86,66.14s-.05-.02-.05-.04c0,0,0-.01,0-.02.08.05.06.06.06.06ZM62.8,66.07s0,0,0,0h-.01c-.05-.03-.07-.05-.07-.05.01-.04.04-.04.05-.02.01.02.02.05.03.07,0,0,.02,0,.04,0,.02,0,.03.03.04.05-.04-.02-.07-.03-.09-.05ZM63.03,65.78s-.02-.02-.03-.03c.01-.02.02-.04.03-.06.01.01.03.02.03.03,0,.02-.02.04-.03.06ZM63.21,66.05s-.02-.02-.03-.03c.02-.01.04-.02.06-.03,0,0,.02.02.03.03-.02.01-.04.02-.06.03ZM63.96,67.82s.03.02.03.03c0,.02-.02.04-.03.06-.01-.01-.02-.02-.03-.03.01-.02.02-.04.03-.06ZM63.75,68.08c.08-.09.16-.08.27-.03-.09.09-.18.03-.27.03ZM65.83,70.25s.02.05.03.07c0,.05,0,.09-.06.08-.01,0-.03-.05-.03-.07,0-.04,0-.09.06-.08ZM65.35,69.02c.13.11.19.26.25.42-.18.14-.29-.14-.46-.06.08-.13.2-.21.21-.36ZM65.63,63.56s.02.02.03.03c-.01.02-.02.04-.03.06-.01-.01-.03-.02-.03-.03,0-.02.02-.04.03-.06ZM65.29,67.12s-.02.05-.04.05c0,0-.01,0-.02,0,.05-.08.06-.06.06-.06ZM65.26,66.9s.03.02.03.03c0,.02-.02.04-.03.06-.01-.01-.02-.02-.03-.03.01-.02.02-.04.03-.06ZM65.17,63.93s.02.04.03.06c0,0-.02.02-.03.03-.01-.02-.02-.04-.03-.06.01-.01.02-.02.03-.03ZM65.05,67.2s.08-.02.12-.03c.02,0,.03,0,.04,0,0,0,0-.02,0-.04,0-.02.03-.03.05-.04-.02.04-.03.07-.05.09,0,0,0,0,0,0,0,0,0,0,0,0-.06.09-.11.09-.15.08-.04-.01-.04-.05-.02-.06ZM64.89,63.28s.02.04.03.06c-.01.01-.02.02-.03.03-.01-.02-.02-.04-.03-.06,0,0,.02-.02.03-.03ZM64.87,63.67s.04.02.06.03c-.01.01-.02.03-.03.03-.02,0-.04-.02-.06-.03.01-.01.02-.02.03-.03ZM64.92,67.3s-.02.04-.03.06c-.01-.01-.02-.02-.03-.03.01-.02.02-.04.03-.06.01.01.03.02.03.03ZM64.8,67.08s.02.04.03.06c-.01.01-.02.02-.03.03-.01-.02-.02-.04-.03-.06,0,0,.02-.02.03-.03ZM64.7,64.02s.02.04.03.06l-.03.03s-.02-.04-.03-.06c0,0,.02-.02.03-.03ZM64.61,67.36s.02.04.03.06c0,0-.02.02-.03.03-.01-.02-.02-.04-.03-.06,0,0,.02-.02.03-.03ZM64.44,63.85s.02.02.03.03c-.02.01-.04.02-.06.03,0,0-.02-.02-.03-.03.02-.01.04-.02.06-.03ZM64.32,65.52s.04.02.06.03c-.01.01-.02.02-.03.03-.02-.01-.04-.02-.06-.03.01-.01.02-.03.03-.03ZM64.06,68.03c.11-.15.22-.1.34-.12,0,0-.02,0-.03,0-.09.15-.18.06-.32.11ZM64.18,68.33c.11-.06.19-.06.3,0-.1.06-.18.07-.3,0ZM64.7,68.75s-.03-.02-.03-.03c0-.02.02-.04.03-.06.01.01.02.02.03.03-.01.02-.02.04-.03.06ZM65.49,67.17c0,.06-.03.1-.09.09,0,.06-.03.1-.09.09,0,.14-.12.08-.19.09-.21.23-.43.37-.7.45-.06-.18-.27,0-.33-.15.36-.06.68-.2,1.02-.3,0-.14.12-.08.19-.09,0-.06.03-.1.09-.09,0-.06.03-.1.09-.09-.01-.12.05-.25-.1-.35.35.12.35.13.1.35Z"/>
        <g>
          <path class="cls-10" d="M75.58,74.06c-3.44.09-4.61-1.61-4.45-4.69.06-1.1.33-2.19.51-3.28-.76,3.59-1.51,7.19.03,10.78.32.75.79,1.09,1.66,1.09,6.91,0,13.83.08,20.74.08.96,0,1.91-.33,3.27-.58-2-1.84-4.04-1.76-6.28-2.04,1.01-.26,1.72-.45,2.43-.64-5.99-.77-11.96-.88-17.93-.72Z"/>
          <path class="cls-10" d="M29.83,73.71h-.21c0,.06,0,.12,0,.18.02,0,.04-.01.05-.02.06-.05.11-.11.16-.16Z"/>
          <path class="cls-10" d="M33.43,69c.03,2.01.04,3.3,0,4.17v5.19c.77-.3,1.29-.81,1.25-1.83-.19-4.67.73-9.5-1.25-14.39,0,.64,0,1.26,0,1.86v4.22c0,.27,0,.53,0,.79Z"/>
          <path class="cls-10" d="M24.32,70.22s-.06.08-.1.12c0,0,0,0,.01,0,.03-.04.06-.07.09-.11Z"/>
          <path class="cls-10" d="M26.71,62.61c-.09-.04-.2-.09-.35-.13.15.04.27.09.35.13Z"/>
          <path class="cls-10" d="M24.76,69.92s-.05,0-.08.01c.02,0,.04,0,.06,0,0,0,0,0,.01,0Z"/>
          <path class="cls-9" d="M27.04,63.69c.15-.05.3-.11.45-.16-.14-.12-.28-.25-.42-.37-.01.18-.02.35-.03.53Z"/>
          <path class="cls-9" d="M24.76,69.92s0,0-.01,0c-.02,0-.04,0-.06,0-.07.01-.15.02-.2.02-.02.03-.04.07-.06.1,0,.01-.01.02-.02.03-.02.03-.04.05-.06.08-.01.01-.02.03-.03.04-.03.04-.06.07-.09.11,0,0,0,0-.01,0-.03.03-.05.05-.08.08-.03.03-.05.05-.08.08-.02.01-.03.02-.05.04-.03.02-.06.04-.08.06,0,0,0,0-.01,0,.01.04.06.11.12.17.06.06.13.1.17.11.04.13.1.27.17.41.07.15.14.28.21.4-.02-.21-.02-.55.09-.95.12-.41.33-.76.46-.92-.02,0-.03.01-.05.02-.06.02-.13.05-.21.07-.04,0-.07.02-.11.03Z"/>
          <path class="cls-10" d="M24.13,70.42s-.09.08-.13.11c.02-.01.03-.02.05-.04.03-.02.05-.05.08-.08Z"/>
          <path class="cls-10" d="M25.08,69.83c-.07.03-.14.05-.21.07.08-.02.14-.04.21-.07Z"/>
          <path class="cls-4" d="M80.66,68.68s0,.03,0,.05c0-.03,0-.05,0-.05Z"/>
          <path class="cls-10" d="M30.78,59.49c-4.78-1.29-9.78.92-15.59-.83,1.71-.27,2.44-.46,3.18-.48,3.61-.07,7.24.1,10.84-.19,3.45-.28,2.03-3.04,2.08-4.97.03-1.36-.85-2.74.04-4.06.11-.17.69-.02,1.47-.02-1.41,8.91-.81,17.63-.16,26.34.51-.41.72-.72.79-2.11v-4.96c-.01-1.37,0-2.75,0-4.22v-15.85h35.69v16.16c.01.54,0,1.08,0,1.62v6.26c.09,1.11.27,2.23.61,3.39.87-9.32,1.29-17.87-.02-26.61.77,0,1.28-.14,1.41.02.87,1.11.1,2.32.12,3.5.03,1.88-1.55,4.68,1.41,5.19,3.45.6,7.08.19,10.63.26.79.02,1.58.2,3.29.43-5.52,1.87-10.32-.47-14.93.98,1.84,4.51.82,9.2,1.21,13.97,1.46-.22,2.85-.53,4.25-.63,4.3-.3,8.69.64,12.9-.94,1.71-.64,2.15-1.31,1.36-2.42-4.49,2.54-4.55.8-4.2-3.51.39-4.79,1.98-10.26-1.02-14.54-9.9-14.12-29.51-20.9-46.14-16.45-17.33,4.64-26.54,15.13-25.87,29.66.18,3.93,1.52,8.23-4.4,9.26h19.88c.18-4.93-.59-9.62,1.16-14.22ZM84.58,64.51c-.22.65-.46,1.25-.7,1.8.04.21.07.56-.03.95-.05.17-.11.32-.17.44-.16.26-.46.62-.92.8-.34.13-.66.12-1.04.11-.34-.01-.63-.06-.82-.1-.08.06-.16.12-.24.18,0,0,0,.02,0,.05,0,.02,0,.04,0,.07,0,.02,0,.04,0,.06-.01.2-.04.52-.05.65-.04.47-.04.85-.04,1.09-.07.02-.14.05-.21.07.03-.15.07-.46-.04-.82-.09-.29-.25-.49-.35-.6,0,0,0,0,0,0,0,0,0,0,0,0,0,.15-.01.3-.02.45-.1.18-.26.43-.52.66-.19.17-.37.29-.52.37.11-.14.23-.33.34-.56.16-.34.23-.64.26-.87-.09-.03-.22-.08-.35-.18-.16-.12-.26-.26-.32-.34-.09-.02-.24-.05-.42-.1-.48-.13-.96-.27-1.39-.64-.16-.14-.33-.3-.44-.56-.05-.14-.09-.32-.05-.79.03-.33.07-.55.17-1.03.04-.21.13-.66.23-1.21.04-.26.1-.6,0-.94,0-.03-.06-.2-.19-.38-.07-.09-.15-.19-.28-.23-.07-.02-.13,0-.17,0-.15,0-.3-.01-.44-.02h-.57c.11-.2.22-.4.33-.59.07-.13.14-.26.23-.4.08-.13.12-.17.2-.29,0-.14.04-.21.08-.25.05-.05.08-.04.15-.1.07-.06.06-.09.12-.14.05-.04.14-.07.23-.05.08.02.15.07.19.14.04.07.01.11.05.14.06.04.13-.02.21.01.07.03.06.08.12.14.12.1.27,0,.39.08.05.03.11.11.13.29,0,0,0,0,0,0,.09.05.16.09.21.12.09.06.46.29.78.71.19.25.31.49.48.83.17.33.15.37.26.52.1.15.3.42.68.59.4.17.76.11.87.08.11-.02.43-.1.69-.37.21-.22.28-.45.36-.69.04-.13.08-.28.14-1.01.02-.26.04-.47.05-.62.03-.05.07-.1.13-.16.15-.14.33-.15.39-.16.17-.02.44-.03.74.04.2.05.46.1.72.3.32.25.45.57.54.8.11.28.15.54.16.7-.09.31-.19.63-.3.96ZM20.72,55.98h10.21c-4.15,1.67-7.2.52-10.21,0ZM18.8,48.88c17.43-17.27,37.76-17.48,54.6-7.39,4.98,2.98,10.33,6.39,12.35,12.4-4.44,1.92-8.57,3.34-14.54,1.33,5.22.36,8.86,0,12.81-2.02-1.79-.67-3.04-1.14-4.34-1.63.89-1.08,2.87-.19,3.45-2.22-1.88.63-3.51,1.18-5.29,1.77.94-1.44,1.86-2.79.63-5.1-.85,3.38-2.31,5.73-5.73,6.48.07-.99.12-1.8.26-3.82.32,1.44.37,1.66.4,1.8,1.26-.91,2.51-1.83,3.78-2.74-1.34-1.94-54.41-1.23-56.58,1.35,2.27-.12,4.1-.13,5.9-.33,1.58-.18,2.81.46,3.17,1.76.34,1.23-1.11,1.52-2.05,1.82-2.63.83-5.32.89-7.91.33-1.05,1.09-2.03,2.11-3.46,3.61-.2-3.36.74-5.6,2.56-7.41ZM27.04,63.69c-.38.14-.77.29-1.15.43-.08.03-.28.14-.36.36-.06.16-.03.3.02.45.13.41.33.62.65,1.06.29.41.44.62.53.89.05.16.16.48.1.86-.05.34-.27.62-.7,1.15-.4.5-.61.75-.98.91-.02.01-.05.02-.07.03.02,0,.04-.01.05-.02-.13.17-.34.51-.46.92-.12.4-.11.74-.09.95-.07-.12-.14-.25-.21-.4-.07-.15-.12-.28-.17-.41-.04-.01-.1-.04-.17-.11-.05-.06-.1-.13-.12-.17,0,0,0,0,.01,0-.1.07-.2.12-.28.16-.08.14-.15.31-.22.5-.09.25-.15.49-.19.69,0-.28-.02-.62-.1-1-.03-.15-.08-.29-.12-.41-.2-.17-.4-.33-.6-.5-.37.07-.68.06-.89.03-.86-.1-1.41-.56-1.53-.65-.27-.23-.42-.45-.51-.58-.3-.43-.44-.85-.51-1.12-.08-.08-.27-.26-.58-.32-.5-.1-.88.18-.94.22-.16-.12-.56-.46-.69-1.03-.04-.17-.04-.33-.03-.46.02-1,.2-1.64.37-2.25.18-.47.23-.78.39-1,.22-.32.61-.45.72-.49.09-.03.32-.15.77-.02.51.15.66.27.91.48.42.35.74.62.91,1.08.06.17.15.32.28,1.02.03.16.09.46.11.55.23.11.28.14.54.24.43.16.66.12.83.1.46-.07.72-.47.92-.79.3-.48.22-.56.51-1.07.05-.09.28-.49.73-.87-.12.11-.23.21-.3.3-.03,0-.17-.06-.24-.16-.01-.02-.08-.12-.04-.2.04-.07.13-.03.22-.13.04-.05.03-.07.08-.12.05-.05.11-.07.15-.08,0-.09.06-.17.14-.2.09-.03.19,0,.25.07-.07-.07-.07-.18-.02-.24.06-.06.15-.04.15-.04-.03-.05-.04-.11-.02-.16.03-.07.12-.1.2-.08,0-.06,0-.11,0-.15.06-.26.35-.37.39-.39.03.08.08.19.18.3.12.12.22.14.41.24.09.05.22.13.37.26.02.09.03.22.06.31.12.18.24.37.36.55.14.12.28.25.42.37-.15.05-.3.11-.45.16Z"/>
          <path class="cls-10" d="M99.98,73.51c-2.89.04-4.18-3.5-7.29-3.28,2.06,2.78,6,4.36,4.76,8.55-8.36,0-16.58.1-24.79-.07-1.2-.02-2.55-.15-3.55-.77v.42h-35.69v-.02c-1.1.43-2.71.4-3.86.75,3.18-4.51,2.12-9.18,1.11-13.84.19,2.76,1.93,5.67-.84,8.44h.25c-.15.05-.29.11-.42.16-.02.02-.04.04-.06.05,0-.01,0-.02,0-.03-1.04.41-1.61.72-2.21.79-7.45.77-14.95-.42-22.43.68-4.04.59-5.71,2.26-4.69,5.95.42-.85,1.89-1.57,3.93-2.14,1.21.57,2.45,1.11,3.68,1.1,10.42-.09,20.85-.65,31.26-.36l20.14-.02c5.41.15,5.66.04,8.73,0,8.53.08,16.29.08,24.69.24,5.37.1,7.53-1.9,7.25-6.61ZM18.87,76.44h-10.26c3.43-.95,6.84-.72,10.26,0ZM4.6,79.07c6.07-1.57,16.57-1.78,19.69.34-6.59,0-13.13.22-19.69-.34Z"/>
        </g>
        <path class="cls-10" d="M6.81,81.2c26.26,3.25,52.69-.36,78.96,2.79-25.59-1.47-51.14.91-76.75.22,3.62,1.32,6.24,4.68,10.73,4.03,4.08-.59,8.31-.13,12.47-.13,16.02,0,32.04-.17,48.06.1,5.08.09,9.42-.34,12.42-5,.58-.9,1.76-1.43,2.52-2.02H6.81ZM15.12,86.44c0-.15,0-.3,0-.45h69.71c0,.15,0,.3,0,.45H15.12Z"/>
      </g>
      <g>
        <path class="cls-9" d="M80.58,69.11s-.02.02-.03.03c0,0,0,0-.02.01-.01,0-.03.02-.04.03-.02.01-.03.02-.05.03-.2.11-.4.05-.44.03,0,0,0,0,0,0,.1.11.26.31.35.6.12.36.07.67.04.82.07-.02.14-.05.21-.07,0-.24,0-.62.04-1.09.01-.13.04-.45.05-.65-.01.08-.05.15-.09.21,0,.01-.02.03-.03.04Z"/>
        <path class="cls-9" d="M84.24,62.05c-.26-.2-.52-.26-.72-.3-.31-.07-.57-.06-.74-.04-.07,0-.24.02-.39.16-.06.05-.1.11-.13.16-.01.14-.03.36-.05.62-.07.73-.1.88-.14,1.01-.08.25-.15.48-.36.69-.27.27-.58.34-.69.37-.11.02-.47.09-.87-.08-.38-.16-.58-.44-.68-.59-.11-.15-.09-.19-.26-.52-.17-.33-.29-.58-.48-.83-.32-.42-.68-.65-.78-.71-.05-.03-.12-.08-.21-.12-.1-.05-.22-.11-.36-.15-.08-.03-.16-.05-.26-.07-.03,0-.05-.01-.08-.02-.02,0-.05,0-.07-.01-.09-.01-.18-.02-.33-.02-.05,0-.08,0-.11,0-.12,0-.27,0-.45.02-.08.12-.12.16-.2.29-.08.14-.16.27-.23.4.08.2.16.4.24.59.15,0,.3.01.44.02.04,0,.1-.02.17,0,.13.03.21.13.28.23.13.18.18.35.19.38.1.34.04.67,0,.94-.09.54-.18,1-.23,1.2-.1.48-.14.7-.17,1.03-.04.47,0,.65.05.79.1.26.27.42.44.56.43.38.91.51,1.39.64.18.05.33.08.42.1.05.09.15.22.32.34.13.1.26.15.35.18-.03.23-.1.53-.26.87-.11.23-.23.42-.34.56.15-.08.33-.2.52-.37.26-.24.42-.48.52-.66,0-.15.01-.3.02-.45,0,0,0,0,0,0,.2.07.34.04.49-.06.02-.01.04-.03.06-.04.01-.01.02-.02.03-.03,0-.01.02-.02.03-.04.1-.17.09-.39.1-.39.08-.06.16-.12.24-.18.19.04.48.09.82.1.38.01.7.02,1.04-.11.47-.18.76-.53.92-.79.06-.12.12-.26.17-.44.1-.4.07-.74.03-.95.24-.55.48-1.15.7-1.8.11-.33.21-.65.3-.96-.01-.17-.05-.42-.16-.7-.09-.23-.22-.55-.54-.79ZM76.19,62.13s-.02,0-.02-.02,0-.02.02-.02.02,0,.02.02,0,.02-.02.02Z"/>
        <path class="cls-9" d="M75.31,62.88h.57c-.08-.19-.16-.39-.24-.59-.11.2-.22.39-.33.59Z"/>
        <path class="cls-9" d="M76.52,61.58s0,0,0,0c.16,0,.26,0,.41.02,0,0,.01,0,.02,0,.03,0,.05,0,.07.01.02,0,.04,0,.07.01,0,0,0,0,.01,0,.11.02.19.05.24.07,0,0,.01,0,.02,0,.15.05.27.1.36.15,0,0,0,0,0,0-.01-.18-.07-.25-.13-.29-.12-.08-.27.02-.39-.08-.06-.06-.05-.11-.12-.14-.09-.04-.16.03-.21-.01-.04-.03-.01-.07-.05-.14-.04-.07-.11-.12-.19-.14-.09-.02-.17.01-.23.05-.06.04-.04.07-.12.14-.07.06-.11.06-.15.1-.04.04-.08.11-.08.25.04-.01.16-.02.27-.02.1,0,.14,0,.18,0Z"/>
        <path class="cls-6" d="M76.19,62.1s-.02,0-.02.02,0,.02.02.02.02,0,.02-.02,0-.02-.02-.02Z"/>
      </g>
      <g>
        <path class="cls-5" d="M27.04,63.73c-.38.14-.77.29-1.15.43-.08.03-.28.14-.36.36-.06.16-.03.3.02.45.13.41.33.62.65,1.06.29.41.44.62.53.89.05.16.16.48.1.86-.05.34-.27.62-.7,1.15-.4.5-.61.75-.98.91-.02.01-.05.02-.07.03.02,0,.04-.01.05-.02-.13.17-.34.51-.46.92-.12.4-.11.74-.09.95-.07-.12-.14-.25-.21-.4-.07-.15-.12-.28-.17-.41-.04-.01-.1-.04-.17-.11-.05-.06-.1-.13-.12-.17,0,0,0,0,.01,0-.1.07-.2.12-.28.16-.08.14-.15.31-.22.5-.09.25-.15.49-.19.69,0-.28-.02-.62-.1-1-.03-.15-.08-.29-.12-.41-.2-.17-.4-.33-.6-.5-.37.07-.68.06-.89.03-.86-.1-1.41-.56-1.53-.65-.27-.23-.42-.45-.51-.58-.3-.43-.44-.85-.51-1.12-.08-.08-.27-.26-.58-.32-.5-.1-.88.18-.94.22-.16-.12-.56-.46-.69-1.03-.04-.17-.04-.33-.03-.46.02-1,.2-1.64.37-2.25.18-.47.23-.78.39-1,.22-.32.61-.45.72-.49.09-.03.32-.15.77-.02.51.15.66.27.91.48.42.35.74.62.91,1.08.06.17.15.32.28,1.02.03.16.09.46.11.55.23.11.28.14.54.24.43.16.66.12.83.1.46-.07.72-.47.92-.79.23-.36.24-.5.35-.76,0,0,.06-.14.16-.31.22-.39.61-.76.73-.87l-.3.3s-.17-.06-.24-.16c-.01-.02-.08-.12-.04-.2.04-.07.13-.03.22-.13.04-.05.03-.07.08-.12.05-.05.11-.07.15-.08,0-.09.06-.17.14-.2.09-.03.19,0,.25.07-.07-.07-.07-.18-.02-.24.06-.06.15-.04.15-.04-.03-.05-.04-.11-.02-.16.03-.07.12-.1.2-.08,0-.06,0-.11,0-.15.06-.26.35-.37.39-.39.03.08.08.19.18.3.12.12.22.14.41.24.09.05.22.13.37.26.02.09.03.22.06.31.12.18.24.37.36.55.14.12.28.25.42.37-.15.05-.3.11-.45.16ZM24.68,63.15c.09-.09.19-.18.3-.26.08-.07.16-.13.24-.19M25.21,62.71c.19-.12.33-.14.45-.18,0,0,.25-.08.53-.04.2.03.15.01.32.06.05.02.05,0,.2.07"/>
        <path class="cls-1" d="M26.43,63.07s-.02,0-.02.02,0,.02.02.02.02,0,.02-.02,0-.02-.02-.02Z"/>
        <path class="cls-3" d="M27.08,63.2l-.03.53"/>
        <path class="cls-5" d="M23.92,70.63c.09-.06.2-.14.3-.26.12-.14.2-.28.25-.38.08,0,.17,0,.28-.02.16-.02.29-.07.38-.12"/>
        <path class="cls-9" d="M23.13,66.88s-.08-.1-.14-.15c-.1-.09-.19-.14-.27-.18l-2.32-.62c-.21.17-.49.44-.73.84-.17.28-.28.54-.35.75.03.29.13.75.42,1.12.14.17.35.35.37.37.17.15.33.26.44.33.39.04.86.06,1.39.01.35-.03.67-.09.95-.15.18-.15.39-.33.59-.57.14-.16.26-.32.36-.46-.1-.21-.22-.44-.35-.67-.12-.22-.25-.43-.37-.62Z"/>
      </g>
      <path class="cls-10" d="M63.34,44.13c.26-1.51.45-2.62.68-3.96.48,1.44.89,2.67,1.57,4.72v-5.06c1.59,1.08,2.76,2.28,2.11,4.04-.91,2.46-3.13,2.11-5.5,1.95.63-.23.96-.35,1.7-.62-1.71-.15-2.99-.26-4.29-.37.63-1.29,1.16-2.39,1.89-3.9.69,1.2,1.16,2.02,1.84,3.21Z"/>
    </g>
  </g>
</svg>