<?xml version="1.0" encoding="UTF-8"?>
<svg id="Capa_2" data-name="Capa 2" xmlns="http://www.w3.org/2000/svg" viewBox="0 0 100 88.32">
  <defs>
    <style>
      .cls-1 {
        stroke-width: .14px;
      }

      .cls-1, .cls-2, .cls-3, .cls-4, .cls-5 {
        stroke: #000;
        stroke-miterlimit: 10;
      }

      .cls-2, .cls-3 {
        fill: none;
      }

      .cls-2, .cls-5 {
        stroke-width: .2px;
      }

      .cls-3 {
        stroke-width: .57px;
      }

      .cls-4 {
        stroke-width: .28px;
      }
    </style>
  </defs>
  <g id="Capa_2-2" data-name="Capa 2">
    <g id="Capa_1-2" data-name="Capa 1-2">
      <g>
        <g>
          <path d="M11.21,71.63c.77-3.46-1.52-6.21-1.88-9.36-1.3-11.43,5.13-18.62,13.67-24.37,21.43-14.42,45.5-11.45,63.8,6.81,6.29,6.28,5.12,13.04,4.2,20.24-.09.73-.68,1.4-1.27,2.54-1.91-3.2-1.93-6.28-1.43-9.19.67-3.98-.49-7.16-2.99-10.09-15.3-18-43.25-21.15-61.3-6.64-5.13,4.12-10.9,8.21-11.11,15.82-.1,3.72.47,7.45.56,11.18.03,1.37-.79,2.51-2.26,3.06h0Z"/>
          <path d="M69.79,44.32c-.21-1.14-.4-2.13-.65-3.49,1.82.84,3.3,1.53,4.92,2.28-1.49.39-3.07-.02-4.27,1.2h0Z"/>
          <path d="M58.06,38.17c.91,2.99-4.75,6.78-9.16,6.19.39-2.36-1.06-1.59-2.12-1.16-4.29,1.72-8.42,4.22-13.34,2.66-.82-.26-1.57-.71-3.4-1.56,4.15,0,7.17.06,10.19-.02,1.88-.05,3.58-.55,5-2.02,1.48-1.54,3.43-1.23,5.33-.75,4.51,1.13,5.25.8,7.5-3.34Z"/>
          <path d="M41.76,41.93c3.74-2.86,6.84-6.37,11.94-5.65.73.1,1.51.14,1.58,1.13.07.93-.69,1.15-1.33,1.36-3.91,1.25-8.21.98-12.18,3.16h0Z"/>
          <path d="M53.38,44.86c4.67-.27,5.18-6.71,10.27-6.81-2.8,3.5-5.41,6.82-10.27,6.81Z"/>
          <path d="M35.97,43.8c2.57-3.93,5.77-5.51,10.55-6.31-4.23,1.71-7.42,3.31-10.55,6.31Z"/>
          <path d="M64.15,17.19c-2.73-2.91-6.33-1.55-10.38-2.38,2.31-1,3.81-1.95,5.44-2.27,2.19-.43,4.47-.46,6.71-.51,1.03-.02,2.54-.29,2.9.92.36,1.19-1.04,1.77-1.88,2.41-.89.68-1.87,1.24-2.78,1.83h-.01Z"/>
          <path d="M24.86,27.76c4.04-3.24,8.44-4.44,13.29-5.58-4.15,2.78-8.43,4.25-13.29,5.58Z"/>
          <path d="M38.8,26.11c2.44-3.23,6.94-.31,9.38-4.85-.39,1.88-.29,2.77-.7,3.16-2.35,2.28-5.34,1.62-8.69,1.68h0Z"/>
          <path d="M12.77,31c.07-4.74-1.26-8.84,1.14-14.11-.65,5.39,1.11,9.51-1.14,14.11Z"/>
          <g>
            <path d="M92.63,11.96c-3.18,12.05,1.72,24.17-.4,35.59-2.92-1.97-4.53-8.24-1.98-11.52-.12,2.65-.73,5.14.12,7.72,1.76-7.99.93-15.73-.88-23.9-1.47,4.45-.13,8.35.45,12.38-4.6-1.44-1.83-7.36-5.92-9.52.61,1.91,2.18,3.4,1,4.75-.82.94-2.14-.39-3.13-.98-5.8-3.47-11.81-6.36-18.56-7.57-4.73-.85-9.39-2.11-13.45,1.78-1.09,1.04-1.28,1.96.2,2.78,2.08-1.75,4.28-3.12,7.5-3.35-.73.81-1.14,1.27-1.75,1.94,3.27,2.11,4.91-.96,6.94-1.97-1.31,7.3-7.11,4.06-11.85,4.1,1.86,2.08,16.28,1.56,17.47-.16-1.75-.9-3.44-.05-5.14.13-.11-1.12.45-1.74,1.38-1.87,4.71-.69,8.27,2.23,13.26,4-3.52.44-5.77-.45-7.86-1.05-3.52,1.9-7.16.83-11.64,1.1,3.43.74,5.95,1.2,8.42,1.82,3.93.99,6.48,2.55,6.14,3.91-9.88-5.7-20.52-6.51-31.46-4.79-11.11,1.75-20.11,7.59-28.79,16.43,2.08-4.7,5.23-6.2,7.98-8.32,7.45-5.73,16.17-8.97,24.34-13.27.49-.26.93-.6,1.64-1.06-4.16-.75-6.95,1.15-9.62,3.37-7.09,5.9-18.56,2.31-24.12,11.81,4.74-.63,6.35-6.81,11.87-6.3-2.88,2.96-5.97,5.36-9.38,7.33-.8.46-1.85.07-2.59-.85-.03.06-.07.11-.1.17-.72-2.06-.22-3.09.78-3.72,9.19-5.75,18.07-12.01,29.5-12.88,8.35-.63,10.07-2.7,9.04-9.04-.59-3.66-1.29-7.3-1.93-10.95h-.37c-1.16,3.68-1.26,7.49-1.34,11.29-.11,5.04-2.59,6.96-7.68,7.36-5.06.4-10.24,1.39-14.7,4.36-4.62,3.09-10.01,4.98-14.39,9.84-.28-3.92-.53-6.94-.71-9.97-.45-7.79-.54-8.3-1.67-8.67-1.16,13.88-1.18,27.8-1.21,41.79.64-6.02,4.1-10.59,8.85-14.81,11.2-9.93,23.95-14.48,38.95-13.42,8.13.58,14.87,5.38,22.74,6.53,3.07.45,5.31,2.56,7.61,4.38,1.12.89,1.73,2.43,2.57,3.68-2.02-1.06-3.65-2.41-5.24-3.79-3.38-2.93-4.4-3.43-5.22-2.62,7.34,6.46,17.04,11.38,14.86,23.99,2.95-16.12-.23-32.06-.53-47.99h0ZM69.14,26.51c5.3,1.02,9.81,1.89,14.32,2.75-4.66-.12-9.52.74-14.32-2.75ZM88.83,36.4c-.05.25-1.21.59-1.61.39-3.62-1.86-7.19-3.83-12.19-6.55,5.91.57,10.07,1.26,13.63,3.83.43.31.32,1.57.17,2.33Z"/>
            <path d="M8.03,60.1v-4.1c-.14,1.3-.15,2.66,0,4.1Z"/>
          </g>
          <line class="cls-3" x1="34.84" y1="48.85" x2="34.84" y2="76.33"/>
          <line class="cls-2" x1="37.64" y1="48.85" x2="37.64" y2="76.33"/>
          <line class="cls-2" x1="40.63" y1="48.85" x2="40.63" y2="76.33"/>
          <line class="cls-2" x1="43.47" y1="48.85" x2="43.47" y2="76.33"/>
          <line class="cls-2" x1="45.95" y1="48.85" x2="45.95" y2="76.33"/>
          <line class="cls-2" x1="48.5" y1="48.85" x2="48.5" y2="76.33"/>
          <line class="cls-2" x1="51.33" y1="48.85" x2="51.33" y2="76.33"/>
          <line class="cls-2" x1="50.79" y1="48.88" x2="50.79" y2="76.36"/>
          <line class="cls-2" x1="54.2" y1="48.68" x2="54.2" y2="76.16"/>
          <line class="cls-2" x1="68.88" y1="55.19" x2="33.07" y2="55.19"/>
          <line class="cls-2" x1="57.19" y1="48.68" x2="57.19" y2="76.16"/>
          <line class="cls-2" x1="60.03" y1="48.68" x2="60.03" y2="76.16"/>
          <line class="cls-2" x1="62.51" y1="48.68" x2="62.51" y2="76.16"/>
          <line class="cls-2" x1="65.28" y1="48.68" x2="65.28" y2="76.16"/>
          <line class="cls-2" x1="67.78" y1="48.68" x2="67.78" y2="76.16"/>
          <rect id="Escalón_2" data-name="Escalón 2" class="cls-4" x="35.71" y="74.45" width="31.11" height="1.54" rx=".77" ry=".77"/>
          <g>
            <path class="cls-1" d="M40.88,70.16c-.06.07-.12.15-.18.22,0-.09,0-.18,0-.27,0-.03-.02-.06-.02-.09-.02.05-.05.09-.07.14-.06.16-.12.32-.18.48,0-.18.03-.36.04-.54,0-.08.02-.15.03-.23-.02.06-.05.12-.07.18,0,.01-.03.02-.04.03-.02-.08-.06-.16-.06-.24,0-1.02.12-2.03.46-3,.02-.05,0-.11.02-.16-.03.04-.08.08-.1.13-.14.39-.45.73-.47,1.17,0,.01-.05.02-.07.04,0-.05-.04-.11-.03-.15.05-.22.11-.43.16-.65,0-.01-.04-.03-.06-.05h0c.04-.12.08-.23.13-.35h0c-.55.81-.66,1.71-.8,2.67-.21,1.48-.92,2.81-1.96,3.93-.04.04-.11.04-.17.06,0-.08-.04-.17,0-.23.55-1.1.59-2.31.64-3.49.04-.85-.2-1.71-.33-2.55-.02-.1-.2-.16-.33-.06h0c-.19.38.02.74.03,1.11.05,1.05.15,2.1.22,3.14,0,.05-.03.11-.04.16-.02-.05-.05-.1-.06-.15-.32-1.09-.65-2.18-.94-3.27-.18-.68-.2-1.38-.1-2.09,0-.09-.04-.18-.07-.27h0c.02-.11.04-.21.06-.32-.05.11-.12.21-.16.33-.29.78-.57,1.55-.86,2.33,0,.04-.05.07-.08.11,0-.05-.05-.1-.04-.14.14-.75.29-1.49.44-2.24h0c-.1-.07-.09-.07-.23.19-.02.04-.07.08-.1.11,0-.05,0-.09,0-.14v-.09s-.05.04-.06.07c-.03.08-.07.17-.09.25-.04.15-.07.31-.11.46,0-.19-.05-.4,0-.57.45-1.24,1.05-2.41,1.79-3.51.2-.29.41-.58.58-.89.06-.1.18-.31.02-.36-.27-.08-.55.06-.69.29-.61.96-1.35,1.85-1.75,2.94-.05.15-.13.29-.32.32,0-.14-.04-.29,0-.42.23-.91.45-1.83.99-2.62h0c.37-.48.76-.95.83-1.59h0c-.61.58-1.21,1.17-1.82,1.75-.1.09-.22.16-.33.24-.03-.24-.03-.48.15-.68.09-.1.15-.23.22-.35.06-.08.12-.16.18-.24l-.05-.05c-.04.09-.08.19-.13.28-.1.09-.2.18-.3.26.09-.26.14-.54.27-.77.09-.17.29-.28.44-.42-.02.04-.04.09-.06.13-.04.07-.02.1.04.04.03-.03,0-.11.02-.16.05-.5.38-.84.64-1.23.03-.05.06-.11.09-.17h0c.48-.84,1.28-1.29,2.09-1.73.05-.03.08-.09.12-.13-.05-.04-.1-.09-.16-.11-.88-.28-1.77-.56-2.66-.81-.39-.11-.79-.12-1.11.21-.05.05-.12.07-.18.11,0-.08,0-.18.04-.25.44-.65,1.12-.95,1.85-.99,1.92-.11,3.56.76,5.2,1.59.12.06.17.3.35.16.03-.02-.06-.22-.11-.33-.25-.63-.77-.94-1.36-1.18-.87-.36-1.8-.66-2.58-1.17-.31-.2-.65-.24-.93-.45-.03-.02-.04-.06-.06-.08.04-.02.08-.05.12-.05.26-.02.6.07.78-.06.86-.63,1.57.12,2.35.18.31.02.5.26.75.39.06.03.11.06.17.09-.02-.08,0-.19-.05-.24-.24-.25-.49-.49-.74-.74-.03-.03-.16-.08,0-.13.02,0,.04.02.07.03h0s-.04-.02-.07-.03c-.51-.35-.64-.94-.93-1.43-.04-.06,0-.16,0-.25.06.04.13.06.17.11.17.21.36.42.5.65.15.24.22.47.59.21.15-.11.47.03.65.21,1.06,1.05,1.79,2.31,2.31,3.7.02.06.11.09.16.14,0-.08.04-.17.02-.23-.33-.96-.55-1.95-.56-2.97,0-.06.06-.12.09-.18.04.03.12.05.13.09.46,2.43,2.17,4.39,2.58,6.84.11.66.17,1.28-.02,1.94-.05.17-.11.52.02.82.12.27,0,.25.51.24.84-.02,1.53-.3,1.96-1.01.44-.74.78-1.55,1.18-2.31.31-.6.64-1.19,1-1.77.13-.21-.02-.29-.09-.39-.08-.12-.13.05-.19.06-.08,0-.24-.02-.25-.06-.06-.3-.59-.48-.27-.86.43-.49.78-1.11,1.56-1.11.16,0,.15-.09.05-.2-.09-.09-.3-.18-.18-.31.1-.11.33-.17.47-.14.65.16,1.21.49,1.58,1.09.02.04.11.04.17.07,0-.09.04-.19.02-.27-.03-.14-.24-.32-.04-.41s.39.1.47.28c.21.45.17.92.05,1.38-.08.27,0,.49.11.72h0s-.09.07-.13.1h0c.03.11.27.15.1.32-.03,0-.06-.02-.1-.03h0s.06.02.1.03c.08.04.17.09.25.13h.04c.06.02.16,0,.18.05.07.13-.04.05-.08.05-.03,0-.05,0-.08,0-.83-.21-.76.5-.61.81.34.72-.3.78-.56,1.1-.04.05-.08.13-.08.2,0,.08.05.15.07.23-.12-.06-.25-.1-.36-.18-.8-.58-.29-1.2-.05-1.82.21-.53-.45-.56-.56-.93-.06-.21-.11-.34.03-.53.06-.08.27-.18.13-.3-.1-.08-.25-.05-.43.07-.3.2-.55.38-.6.75-.04.27-.29.52-.04.81.03.04,0,.14,0,.21,0,0-.04,0-.06.02,0-.03.03-.07.02-.1,0-.02-.07-.05-.08-.04-.05.04-.13.1-.12.13.14.38-.12.59-.32.83-.06.07-.07.25-.04.23.25-.16.37-.05.46.17.02.04.04.07.05.11-.45.09-.11.53-.32.73-.05.05-.03.17-.05.26.03,0,.07.02.09,0,.1-.11.2-.22.29-.34.05-.07.08-.16.12-.24,0,0,.05,0,.07,0-.02.08-.03.17-.06.24-.05.11-.14.21-.19.33-.04.11-.05.23-.06.34,0,.02.09.07.11.06.09-.07.18-.15.26-.23.04-.04.05-.09.08-.14,0,.08,0,.17.02.25,0,.09.04.18.07.26.05-.08.1-.16.14-.25.03-.06.04-.12.06-.19,0,.07.04.14.04.22,0,.16,0,.32.17.41.04-.11.08-.22.12-.33.03-.08.04-.15.07-.23.05.15.11.3.16.46.03.08.07.15.1.23.04-.07.08-.14.11-.21.02-.03.02-.07.03-.11.02.04.04.07.05.11.05.26.12.48.44.23.02-.02.1-.02.1,0,.28.58,1.07.94.77,1.77h-.04c-.04-.2-.09-.4-.13-.59-.03,0-.08.02-.08.02.02.21,0,.44.07.63.21.54-.3,2.1-.72,2.69-.58.8-1.28,1.44-2.03,2.08-.62.52-.88,1.4-1.08,2.22-.15.62-.35,1.23-.53,1.84,0,0-.08,0-.1-.02-.05-.04-.09-.1-.13-.15,0,.11-.07.23-.03.33.09.23.23.44.32.67.08.18.12.38.18.57h0s0,.07-.02.08c-.26.07-.02.15,0,.13.09-.21.29-.01.42-.13.15-.14.36-.23.54-.34h0c.21-.25.45-.06.67-.03-.18.1-.35.21-.53.31-.05.03-.11.05-.16.08.02.01.03.03.05.03.11.02.22.04.33.06-.03-.1.04-.19.1-.11.11.14.37-.21.36.12,0,.21-.22.16-.36.17-.34.03-.68.1-1-.07-.03-.01-.12.05-.15.1-.03.05-.03.13-.04.19.04-.04.09-.12.13-.12.24,0,.51-.04.7.06.27.14.51-.01.76.05.06.01.11.04.16.07-.04.02-.09.04-.13.06-.62.18-1.25.08-1.88.02-.31-.03-.64.11-.96.16-.05,0-.1-.05-.16-.08.07-.05.14-.12.22-.14.38-.1.76-.2.51-.74-.04-.08-.04-.19-.03-.28.06-.48-.15-.72-.45-.99-.2-.17-.17-.59-.28-.88-.09-.24-.21-.49-.35-.7-.18-.28-.39-.56-.7-.1-.38.56-.67,1.16-.9,1.79-.05.13-.16.29-.38.23h-.04s0,.07,0,.11c0,1.34.44,1.78,1.76,1.73h.02c.15.21-.32.12-.16.33.02.03.14,0,.14.01,0,.19-.08.17-.22.13-.28-.08-.57-.15-.86-.22-.02,0-.04,0-.07.02.02.03.05.07.07.1.26.25.52.5.78.75h-.29c-.52-.4-.93-.99-1.71-.9-.06,0-.14-.1-.2-.15h0,0c-.09.02-.17.05-.26.07.1-.18.27-.17.45-.2.12-.02.27-.12.33-.23.13-.25.04-.52-.04-.76-.1-.31-.24-.61-.37-.91v-.08s.04.04.06.04h.18c0-.05,0-.14-.02-.15-.31-.13-.15-.4-.21-.58-.14-.44.09-.92-.24-1.32-.1-.12-.12-.32-.12-.49,0-.29.06-.6-.3-.69-.27-.07-.51.12-.73.27-.19.12-.36.26-.55.39-.02.01-.05.02-.07.03,0-.02,0-.04,0-.05,0-.06.03-.12.05-.19-.07.05-.14.11-.21.16-.09.07-.19.15-.28.22.04-.13.08-.26.12-.4.03-.09.05-.18.08-.26-.07.06-.14.11-.2.17-.16.14-.32.29-.49.43-.07.06-.16.09-.25.14.03-.05.06-.11.08-.16v-.04s-.11.06-.16.1c-.08.05-.17.11-.25.16.03-.08.07-.16.09-.25.04-.15.08-.3.11-.46-.15.08-.33.14-.45.25-.48.44-.84.97-1.11,1.56-.02.05-.07.09-.1.14.02-.06.03-.12.05-.17.21-.55.41-1.09.62-1.64.02-.03.04-.06.06-.1,0-.01.02-.02.03-.03h0s-.02.02-.03.03c-.02.03-.04.06-.06.1h.04ZM36.71,58.63l-.03.03h0l.03-.03.03-.03c.11.07.39.07.09.29-.2.15-.38.34-.52.54-.12.17-.37.25-.34.51.16-.14.33-.29.49-.43.11-.1.2-.2.31-.3-.08.1-.17.2-.23.31-.1.17-.18.36-.26.54h0c.1-.09.23-.16.3-.27.11-.18.14-.09.18.03.48-.47,1.2-.71,1.37-1.47h0s.03-.11.04-.17c-.08,0-.19-.06-.25-.02-.15.1-.28.22-.41.34-.14.14-.27.28-.41.42.11-.15.22-.31.33-.46.02-.03.05-.05.07-.08.06-.07.12-.14.18-.22h-.25c-.18,0-.35.02-.53.04-.05,0-.1.06-.13.1,0,0,0,.08.03.09.32.13-.1.12-.03.2l-.03.03h-.03ZM41.71,55.83h0l-.03-.03s-.02-.04-.03-.07c.21-.12.36-.06.45.16.05.13.17.24.24.11.16-.31-.06-.59-.25-.76-.14-.12-.48-.15-.64.09-.15.21.11.28.2.41,0,.02.02.04.03.07l.03.03h0ZM41.17,69.96h0s-.02.02-.03.03l-.08.09s.02.01.03.02c.02-.04.03-.07.05-.11,0-.01.02-.02.03-.03ZM41.84,68.72s.02-.02.03-.03.02-.02.03-.03h0s-.02.02-.03.03-.02.02-.03.03h0ZM41.39,68.4s.02-.02.03-.03h0s-.02.02-.03.03h0ZM42.41,67.86s.02-.02.03-.03.02-.02.03-.03h0s-.02.02-.03.03-.02.02-.03.03-.02.02-.03.03v.02-.03s.02-.02.03-.03h0ZM43.75,62.68s-.02-.02-.04-.03c-.04-.22-.08-.45-.12-.67-.04,0-.09.02-.13.03h0c.08.21.17.42.25.63l.03.03.03.03h0l-.03-.03h.01ZM42.92,67.42h0s-.02.02-.03.03c-.09.08-.19.16-.28.24l.03.03c.08-.09.16-.19.25-.28,0-.01.02-.02.03-.03h0ZM40.98,53.44h0l-.03-.03-.03-.03h0l.03.03.03.03ZM42.29,66.97s.02-.02.03-.04c.02,0,.04-.02.06-.03h0s-.04.02-.06.03c0,.01-.02.02-.03.03h0ZM41.62,66.56v-.03h-.03v.03h.03ZM42.29,68.03h0,0ZM41.74,54.4h0s-.02-.04-.03-.07c-.02-.03-.05-.06-.07-.09,0-.02-.02-.05-.03-.07h0s.02.04.03.07c.02.03.05.06.07.09,0,.02.02.04.03.07ZM41.59,67.45h0s-.02.03-.03.05h-.06.06s.02-.02.03-.04h0ZM43.08,65.6h0s.03-.01.04-.01c.06,0,.11-.01.17-.03,0,0,0-.06,0-.09-.06.03-.12.06-.18.09,0,.01-.02.02-.04.03h0ZM41.84,67.26h0s-.05.02-.07.03c-.03.02-.06.04-.09.07h0s.06-.05.09-.07c.02,0,.05-.02.07-.03ZM40.85,65.57s-.02-.02-.03-.03c.03-.05.07-.11.1-.16.04-.08.04-.22-.07-.16-.12.06-.17.24-.25.36-.08.13-.15.27-.22.41,0-.06.02-.13.03-.19-.02.02-.06.03-.07.05-.2.44-.42.88-.59,1.33-.06.15,0,.35,0,.52.06-.15.13-.3.18-.45.14-.41.14-.96.65-1.06.23-.05.35-.08.44-.27v-.03c.07-.11.09-.21.24-.31.34-.21.61-.55.91-.84h0c-.06-.01-.13-.05-.18-.03-.46.18-.87.41-1.03.93-.02.07-.11.11-.17.17.03-.06.05-.12.08-.18v-.06h-.02ZM43.33,66.81h0s-.02.05-.03.07c-.05.1-.23.15-.13.32h0c.06-.08.13-.15.19-.22h0s0,0,0,0c-.03,0-.06.02-.09.02,0-.04,0-.08.02-.12,0-.02.02-.05.03-.07h0ZM41.68,54.46h0s-.02-.04-.03-.06l-.03-.03s-.06-.1-.1-.16h0s.06.1.1.16l.03.03s.02.04.03.06ZM45.69,73.85h0s0,.01.02.02c0,0,0-.01-.02-.02ZM43.53,66.09s0,.01-.02.02h0s0,0,0-.02h.01ZM41.9,56.15l-.03-.03v-.06h0s.04-.07.05-.1h-.08c0,.06.02.11.03.17l.03.03.06.06h0l-.06-.06h0ZM50.63,64.33h0s0-.02,0-.03c0,0,0,.02.02.03h-.01ZM52.63,60.51h0s0,.03.02.04h0l-.03-.03h0ZM50.15,74.17s.03-.02.05-.03c0,0,0-.01,0-.02,0,.02-.02.03-.03.05h-.01ZM41.23,54.97h0s-.03-.06-.05-.08h0s.04.05.06.08ZM44.32,62.23h0s0-.07,0-.1h-.02s0,.07.01.1ZM39.7,65.73s.07-.04.1-.06v.16s-.02.06-.02.09h0v-.09c.02-.11.04-.21.07-.32-.02.05-.04.09-.06.14,0-.05-.02-.11-.03-.16-.02.08-.04.17-.06.25s-.03.16-.05.24h.02c0-.08.02-.16.03-.24h0ZM40.88,67.22c.03-.07.05-.14.08-.21,0,0-.02-.01-.04-.02,0,.08-.03.15-.04.23,0,0,0,.02,0,.02h0v-.03h0ZM43.72,64.27v-.16h0c-.16.06-.12.18-.09.29-.07.02-.14.05-.21.07.05-.11.09-.22.14-.33h0c-.24.1-.53.15-.57.5-.02.18.02.4-.19.52.02-.07.04-.13.06-.2,0,0-.07-.04-.09-.03-.18.14-.47.17-.6.29-.48.46-1.05.86-1.22,1.56,0,.03,0,.06,0,.09.02-.02.06-.04.07-.07.18-.56.61-.89,1.08-1.18.16-.1.51-.2.53-.16.16.26-.14.34-.27.49-.07.08-.17.13-.25.2-.19.15-.21.32-.12.28.2-.09.37-.24.55-.37.02-.01.04-.02.07-.03.17-.27.52-.42.51-.79v-.03s.06-.08.1-.13h0c.06.03.16.09.17.08.23-.33.23-.17.18.08h.03c.04-.14.09-.27.09-.41,0-.04-.16-.08-.25-.11h0c.06-.1.13-.21.19-.31.03-.04.06-.09.09-.13h.01ZM49.89,59.14c.15.12.24.02.33-.08,0,0,0-.09-.02-.09-.16-.04-.25.04-.3.18h-.01ZM51.48,64.93c.17-.02.22-.15.24-.28,0-.05-.05-.11-.08-.16-.05.15-.11.3-.16.45h0ZM36.87,55.93s0-.07,0-.1c-.15,0-.29,0-.44-.02,0,.05,0,.13.02.15.14.11.28.1.41-.04h0ZM37.32,60h0c-.09.08-.17.17-.27.24-.05.04-.16.04-.18.08-.04.09-.04.19-.05.29l.11.02c.06-.25.48-.29.38-.63h0ZM44.35,63.6c.09-.06.18-.12.27-.19,0,0,.02.03.02.03-.2.23-.38.47-.61.68-.2.19-.32.39-.28.67,0,.03.04.06.07.09.09-.11.19-.22.28-.34.08-.1.15-.21.22-.32,0,.09,0,.19.02.28,0,.02.03.03.05.05.03-.04.07-.07.09-.12.16-.31.33-.6.77-.5.04,0,.11-.08.15-.13.02-.02-.02-.08-.03-.12-.3.11-.21-.16-.29-.28-.06-.09-.15-.16-.21-.25-.18-.26-.21.08-.31.15-.09.07-.15.19-.22.29h0ZM51.52,62.9c.03.17.06.33.1.48.02.08.06.15.09.23.04-.07.08-.13.12-.2.03-.05.06-.11.08-.17,0,.07.02.14.04.21.06.18.14.36.21.54.03-.05.09-.11.09-.15-.04-.31-.05-.64-.16-.93-.05-.13-.32-.18-.49-.26-.02.09-.05.18-.07.26h0ZM52.89,63.85c.13-.54-.25-.78-.34-1.12,0-.02-.09-.05-.11-.03-.04.02-.08.08-.08.12-.02.17-.05.35-.04.51.02.15.09.29.15.42,0,0,.1,0,.12-.02.04-.03.05-.09.07-.14,0,.06,0,.12.04.18.03.06.07.12.1.18.06-.07.11-.14.08-.1h.01ZM52.61,65.22c.4.18.19.47.13.75.02-.01.04-.02.06-.04.36-.26.14-.67.24-1,0-.04,0-.09,0-.13l-.06.12c-.05.08-.11.15-.17.22,0,0-.03-.02-.03-.03.03-.09.08-.17.1-.25.03-.13.04-.26.07-.4-.04.01-.12.01-.12.04-.08.22-.14.44-.22.71h0ZM53.02,63.12c.04.35.07.63.1.9,0,.05.05.09.08.13.06-.24.15-.47.16-.71,0-.16-.03-.42-.34-.32ZM38.25,67.33c.05.26-.06.64.22.62.25-.03.1-.41.1-.63,0-.11-.17-.22-.27-.32-.02.13-.04.26-.05.34h0ZM51.51,63.01c-.08-.19,0-.4-.21-.47,0,0-.09.11-.08.15.03.19.08.38.12.56.06-.09.12-.18.17-.25h0ZM52.28,65.25c.06.06.09.1.13.15.07-.17.15-.33.21-.51,0-.03-.08-.08-.12-.13-.07.16-.14.32-.22.49ZM40.93,68.47s0-.05-.03-.09c-.06.28-.11.56-.17.84,0,.02,0,.04,0,.06.19-.23.16-.5.19-.81ZM52.07,65.19c-.06-.05-.09-.08-.13-.11-.07.09-.14.18-.2.29,0,.02.06.08.1.12.07-.09.14-.18.23-.29h0ZM41.16,65.12c.15-.16.26-.28.37-.41,0,0-.03-.04-.04-.03-.17.04-.32.11-.37.3,0,.02,0,.05.03.14h.01ZM50.45,58.96c-.1.12-.17.21-.24.31,0,0,.06.05.09.08.07-.09.14-.18.21-.28,0,0-.03-.05-.06-.11ZM49.3,60.24c.15-.2.27-.35.39-.51,0,0-.03-.03-.05-.04-.11.14-.22.29-.33.43,0,0,0,.04,0,.11h0ZM51.17,62.74c-.16-.15-.2-.19-.25-.23-.03.05-.09.1-.09.15s.05.15.09.15c.07,0,.14-.04.25-.07ZM40.99,58.05s-.11-.08-.12-.07c-.06.06-.11.13-.16.2,0,0,.05.06.08.09.06-.07.11-.13.19-.22h0ZM38.71,67.57c.02.06.05.12.07.18.03-.04.08-.08.07-.11,0-.09-.05-.17-.08-.26-.02.06-.04.12-.06.19ZM50.02,64.08c.03.06.06.12.09.17.02-.05.06-.11.06-.16s-.05-.1-.07-.15c-.03.04-.05.09-.08.14ZM52.7,64.55c-.08-.05-.12-.09-.16-.1-.03,0-.07.04-.11.06.04.03.07.08.11.09.03,0,.08-.02.16-.05ZM34.96,55.84s-.07-.04-.08-.04c-.08.05-.16.11-.24.16l.02.04c.09-.05.18-.1.3-.16ZM45.88,74.79c-.07-.06-.11-.1-.15-.13,0,0-.06.05-.06.07.02.04.05.09.08.11,0,.01.06-.02.13-.05ZM52.21,64.94c-.06-.04-.09-.08-.14-.09-.02,0-.05.04-.07.06.04.04.08.08.12.11,0,0,.05-.04.09-.07h0ZM39.49,65.97s-.07-.06-.1-.1c-.02.02-.05.05-.05.06.03.07.07.13.1.19,0-.04.03-.09.05-.16h0ZM37.28,54c.07-.02.13-.04.19-.05-.04,0-.09-.02-.13-.02-.1,0-.2,0-.3,0,.08.02.16.04.23.06h.01ZM46.42,75.05c-.07-.03-.11-.06-.16-.07,0,0-.03.04-.05.06.04.02.08.05.12.07.02,0,.04-.03.09-.05h0ZM39.91,64.97c-.03.06-.06.1-.05.12.02.03.05.06.08.09.02-.03.05-.06.04-.08,0-.03-.03-.06-.07-.12h0ZM41.4,69.5c-.05.06-.08.1-.1.15l.04.04s.06-.07.09-.1c0-.01,0-.04-.03-.08h0ZM38.71,67.06s.03.11.05.18c0-.02.02-.05.02-.07,0-.09-.02-.18-.04-.28,0,.05-.02.1-.03.17ZM45.7,73.21s-.06-.08-.08-.12c0,.02-.03.05-.03.06,0,.04.03.08.05.12.02-.02.04-.04.06-.07h0ZM50.73,63.4l-.08.08s.05.05.08.06l.04-.03s-.02-.06-.04-.11ZM39.59,67.42s-.03.08-.03.1.03.03.05.05c.02-.02.05-.04.04-.07,0-.02-.03-.05-.06-.09h0ZM38.01,67.79s.02-.07.02-.1-.03-.06-.05-.09c-.02.03-.05.06-.05.07,0,.04.05.06.08.11h0ZM49.32,74.67l-.04-.08s-.06.04-.07.07c0,.01.03.04.05.07.02-.02.03-.04.05-.06h.01ZM35.87,59.93s-.05-.02-.06,0c-.03.02-.05.05-.07.08,0,0,.02.03.04.05.02-.03.04-.05.1-.11h0ZM37.37,57.84s-.07-.02-.08,0c-.04.02-.07.05-.1.07,0,0,.03.02.04.02.04-.02.07-.04.14-.08ZM46.18,74.83s-.07-.03-.09-.03-.04.02-.06.04c.02.02.03.05.05.06,0,0,.04-.02.1-.07ZM41.45,67.4s-.04-.04-.05-.04c-.02.02-.05.04-.06.06,0,0,.02.03.03.04.02-.02.04-.04.08-.07h0ZM50.41,74.33s-.04.03-.04.05c0,.01.02.03.03.05.02-.01.04-.03.05-.04,0,0-.02-.03-.04-.05h0ZM49.46,74.42s-.04.06-.04.08c0,.01.02.03.03.04.02-.02.04-.03.05-.05,0-.02-.02-.04-.04-.08h0ZM40.99,58.3h-.14s-.05.03-.08.04c.02,0,.05,0,.07,0,.03,0,.05-.02.14-.06h.01ZM40.42,65.16s-.03-.02-.04-.01c-.03.03-.05.06-.08.1,0,0,.02.02.03.02.02-.03.05-.06.08-.11h.01ZM50.55,74s.03-.05.03-.06c0-.02-.03-.03-.04-.04,0,.01-.03.03-.03.04,0,.02.02.03.04.06ZM49.12,73.54s-.03-.04-.05-.05l-.03.02s0,.03.02.05c.02,0,.03-.02.06-.03h0ZM52.11,57.45s-.03-.04-.04-.05c0,.02-.02.04-.02.06s0,.03.02.05c0-.02.03-.04.04-.06ZM43.83,62.07s-.06-.04-.07-.05c0,0-.02.03-.02.03,0,.02.02.03.04.04,0,0,.03,0,.05-.02ZM49.35,63.1s0-.03-.02-.05c0,.02-.02.03-.02.05s0,.03.02.05c0,0,0-.03.02-.05ZM34.94,60.89l-.03-.03s-.03.02-.05.03c0,0,.02.03.03.04.02,0,.03-.02.05-.04ZM51.58,64.17s-.04.02-.04.03,0,.03.02.04h.04s0-.03-.03-.06h0ZM45.93,74.59s.02-.03.02-.04-.02-.03-.03-.03-.02.02-.03.03c0,0,.02.02.04.03h0ZM49.42,63v.11s0,.02.02.03c0-.02,0-.05,0-.07,0,0,0-.02-.02-.07h0ZM48.67,74.98s-.04-.01-.05-.01-.02.02-.03.03c0,0,.02.02.03.01,0,0,.02-.01.05-.03ZM43.76,63.9l-.02-.02s-.02,0-.02.02c0,0,0,.02.02.02l.02-.02ZM45.04,64.17s0-.02,0-.02h-.02s0,0-.02,0c0,0,0,0,.02.01h.01ZM44.3,63.4s0,0-.02,0c0,0,0,0-.02,0,0,0,0,0,.02,0,0,0,0,0,.02-.02h0ZM45.43,62.99h-.02s0,0,0,0l.02-.02h0ZM41.88,64.54s-.02.02-.03.03l.02.02s.02-.02.04-.02c0,0,0-.01-.02-.02h-.01ZM50.77,61.98s0-.02-.02-.02c0,0-.02.02-.02.03,0,0,0,0,0,.02,0,0,.02-.02.02-.03h.01ZM40.2,62.81s0,0,0-.02l-.02.02s0,0,0,.02l.02-.02ZM49.85,74.77h0s0-.01,0-.01v.02h0ZM39.32,66.19v-.03h-.02s0,.01.02.02h0ZM50.45,74.88s0-.02-.02-.02-.02,0-.03.01c0,0,0,.02.02.02h.03ZM45.81,74.32s-.02,0-.02.01c0,0,0,.02,0,.02,0,0,.02,0,.02-.01,0,0,0-.02,0-.03h0ZM50.35,74v.02h0v-.02h0ZM40.62,57.69v-.02h0s0,0,0,0h0ZM35.02,60.79h0v.02h0s0-.02,0-.02ZM43.99,61.09s0,0,0-.02h0v.02ZM44.38,62.39h0s0,0,0,.01h0ZM39.44,66.34h0,0ZM50.71,58.32h0s0,0,0,0Z"/>
            <path class="cls-1" d="M51.55,60.9c-.1.04-.17.07-.23.09,0,0-.04-.05-.03-.06.04-.04.08-.08.13-.1.02,0,.07.03.13.06h0Z"/>
            <path class="cls-1" d="M51.35,74.41s-.09-.06-.13-.09c.03-.02.07-.05.1-.05.05,0,.1.04.14.07-.03.02-.06.04-.11.07Z"/>
            <path class="cls-1" d="M47.87,75.56c-.07-.06-.13-.11-.19-.16.02-.02.04-.06.05-.05.07.04.13.08.19.13,0,0-.02.04-.05.09h0Z"/>
            <path class="cls-1" d="M53.68,63.88c0,.08,0,.16,0,.24,0-.01-.04-.03-.04-.04v-.2h.04,0Z"/>
            <path class="cls-1" d="M51.75,60.48s-.04.09-.06.12c-.02-.03-.04-.07-.04-.1,0-.04.02-.07.03-.11.02.03.04.06.07.09Z"/>
            <path class="cls-1" d="M40.34,70.88c.03-.05.07-.1.1-.15,0,.03.03.06.03.08-.02.06-.05.11-.07.16-.02-.03-.03-.05-.05-.09h0Z"/>
            <path class="cls-1" d="M40.1,68.16s-.04.05-.06.08c0-.02-.04-.04-.03-.05,0-.03.03-.05.05-.07,0,.01.02.03.04.04Z"/>
            <path class="cls-1" d="M40.16,68.42s-.04.03-.06.04c0-.02-.02-.03-.02-.05,0,0,.02-.03.03-.03.02,0,.03.02.05.04Z"/>
            <path class="cls-1" d="M51.27,60s-.03-.04-.02-.05c0-.02.02-.03.03-.04,0,0,.02.02.02.03,0,.02-.02.03-.03.06Z"/>
            <path class="cls-1" d="M40.61,70.62s-.03-.03-.02-.04c0-.01.02-.02.03-.03,0,0,.02.02.02.03s0,.02-.03.04Z"/>
            <path class="cls-1" d="M51.04,59.31s.02,0,.03,0v.03h0l-.02-.02Z"/>
            <path class="cls-1" d="M40.39,70.21s0,.01-.02.02c0,0,0-.01,0-.02h0s0,0,.02.01h0Z"/>
            <path class="cls-1" d="M53.75,57.87l.03.03h-.02s0-.03,0-.04h0Z"/>
            <path class="cls-1" d="M40.17,68.26h.02s-.02,0-.02,0Z"/>
            <path class="cls-1" d="M44.7,75.22l-.02.02h0s.02-.01.03-.01h0Z"/>
            <path class="cls-1" d="M40.68,70.46h0s0,.01,0,.01v-.02h0Z"/>
            <polygon class="cls-1" points="35.7 59.4 35.7 59.38 35.69 59.39 35.7 59.4"/>
            <path class="cls-1" d="M53.97,58.37s.02.02.03.04h-.04v-.04h.01Z"/>
            <path class="cls-1" d="M42.98,65.32s-.02.07-.03.1c0,0-.02-.01-.04-.02.02-.03.04-.05.07-.08h0Z"/>
            <path class="cls-1" d="M42.6,66.02s-.04.02-.06.03h-.06s.08-.06.13-.09h0v.06h0Z"/>
            <polygon class="cls-1" points="42.79 65.51 42.79 65.5 42.8 65.51 42.79 65.51"/>
            <path class="cls-1" d="M43.43,64.71h0s0,.01,0,0h0Z"/>
            <path class="cls-1" d="M42.98,65.32s.02-.02.03-.03h0s-.02.02-.03.03h0Z"/>
            <path class="cls-1" d="M42.45,66.08s.02-.02.03-.03h0s-.02.02-.03.03h0Z"/>
            <path class="cls-1" d="M42.44,66.08s-.02.02-.03.03h0s.02-.02.03-.03h0Z"/>
            <path class="cls-1" d="M43.11,65.19v.03h-.03s.02-.02.03-.03Z"/>
            <path class="cls-1" d="M43.05,65.25s.02-.02.03-.03h0s-.02.02-.03.03h0Z"/>
            <path class="cls-1" d="M43.05,65.25s-.02.02-.03.03h0s.02-.02.03-.03h0Z"/>
            <path class="cls-1" d="M40.82,65.54s.02.02.03.03v.07s-.02-.07-.03-.1Z"/>
            <path class="cls-1" d="M41.01,65.89v.04-.04Z"/>
            <path class="cls-1" d="M38.35,67.59h0s0,.01-.02.01h0s0-.01,0-.01h.01Z"/>
            <path class="cls-1" d="M36.87,55.93l-.02-.02s0,.02.02.02h0Z"/>
            <path class="cls-1" d="M43.11,65.61v-.04.04Z"/>
            <path class="cls-1" d="M39.8,65.67v-.04.04Z"/>
            <path class="cls-1" d="M41.62,66.56h-.03v-.03h.03v.03Z"/>
          </g>
          <path class="cls-1" d="M61.64,75.41s.06.01.08.01c.05.05.1.05.15,0,.07-.06.08-.03.35-.17,0,0,.07-.04.13-.07.02,0,.05-.02.05-.02.02,0,.03-.01.05-.02.03,0,.06,0,.08-.03.14-.06.27-.12.37-.25.04-.06.09-.09.14-.11h0s.02,0,.03-.02c.08-.02.17-.02.27-.02h.03c.06.03.12.07.18.1.04.04.07.1.09.14.04.09.09.15.15.21.03.03.05.14.12.05.02-.03.02-.09,0-.13-.09-.28-.23-.54-.24-.85,0-.21-.02-.23.18-.2.12.02.24.01.36.01.02,0,.04-.03.06-.05-.03-.01-.05-.04-.08-.04-.06,0-.13.02-.18,0-.19-.07-.43-.14-.46-.36-.03-.23-.15-.45-.11-.7.03-.2.02-.25.08-.26h.09c.34.11.54-.16.88-.1.03,0,.07-.05.11-.07.4-.14.69-.46,1.08-.63.14-.06.23-.2.19-.38-.04-.14.05-.22.14-.31.15-.15.26-.31.23-.52-.1-.07-.21.02-.27-.08.09-.19.16-.53.14-.69-.08.08-.16.15-.23.23-.05.05-.11.05-.17.05s-.12,0-.12-.09c0-.06.03-.1.08-.09.17.05.17-.1.25-.18.17-.17-.16-.26-.05-.41.03-.04.02-.15-.05-.15-.24-.02-.21-.25-.32-.37h.04s.03-.03.04-.05l-.03-.03s-.04.03-.05.04v.04c-.09-.01-.18.03-.26-.03-.05-.17.04-.36-.05-.53-.08.04-.05.11-.05.17,0,.07-.02.13-.1.11-.17-.04-.01-.09,0-.13.08-.27.08-.26.31-.17.13.05.21.11.26.26s.16.15.35.04v.04s.03.03.05.04l.03-.03s-.03-.04-.04-.05h-.04c.01-.06-.03-.13.03-.17.08-.05.13.01.19.06.07.06.06.13.06.2h.57c-.08-.42.1-.72.36-.98.11-.11.18-.23.18-.39,0-.1.1-.17,0-.3-.09-.12.12-.22.09-.37-.03-.14.03-.25.16-.28.21-.06.22-.25.29-.4.02-.03-.03-.08-.09-.05-.04.08-.09.08-.15.06-.04-.01-.04-.05-.02-.06.04-.02.08-.02.12-.03h.05s.02-.06.03-.08c.12-.25.02-.51.06-.76.02-.13-.07-.19-.14-.27-.03-.03-.05-.08-.05-.12.02-.18-.05-.36.04-.54.09-.17.09-.37.01-.52-.07-.15-.05-.23.03-.36.15-.26.13-.41.02-.73-.02-.05-.01-.12-.01-.18,0-.13-.04-.22-.11-.33-.22-.35-.49-.63-.75-.94-.21-.25-.43-.42-.76-.36-.2-.38-.37-.47-.67-.35-.36.15-.66.38-.84.74-.12.23-.19.48-.26.73-.1.34-.08.71-.21,1.04-.01.03,0,.06,0,.09.06.3.04.44-.14.7-.05.08-.07.13,0,.19.05.04.03.09-.01.09-.2,0-.11.2-.17.29,0,.01,0,.02,0,.02.03.04.02.06,0,.06-.02-.01-.05-.02-.05-.04v-.02c-.09,0-.13.05-.13.08-.02.2-.2.16-.33.21.15.09.18.2.07.32-.16.18-.04.04-.06.06.05.08.18.02.22.13.2-.07.22.16.37.2.07.02-.04.17.04.24-.06.04-.11.04-.16,0-.09-.09-.19-.09-.28-.02-.18.14-.22-.03-.29-.13-.12,0-.14-.15-.24-.18-.09.12-.02.23.07.41-.28-.16-.59-.14-.69-.48-.04-.13-.21-.16-.34-.19v.16c.2.05.28.21.23.46-.05-.06-.12-.14-.18-.08-.19.18-.25.03-.32-.1h.04s.03-.03.04-.05c0,0-.02-.02-.03-.03-.02.01-.04.03-.05.04v.04h-.35c-.06,0-.11,0-.08.09h0s.03.03,0,.03c.03.04.02.06,0,.06-.02-.01-.05-.02-.05-.04v-.02c-.08,0-.11.08-.13.07-.08-.04-.13-.12-.2-.18-.09-.08-.14.18-.25.02-.04-.06-.17-.05-.24.02-.02.02,0,.06,0,.09s.23.11.27.1.08-.04.12-.04c.05,0,.08.03.07.09.05,0,.09,0,.07.06,0,.02-.05.02-.07.03-.03.11-.09.19-.22.19-.06,0-.14-.02-.15.06-.03.22-.19.15-.26.09-.17-.15-.38-.14-.62-.16.15-.09.23-.23.26-.44.04-.31.04.03.06.04,0,0,.03.03.03.03-.04.05.09.01.04-.01.05-.11-.04-.25.06-.35h.09s.05.13.13.05c.02-.02,0-.08,0-.12-.06-.17-.25-.07-.36-.17.08-.04.11-.15.23-.14.11.01.22,0,.32,0,.13,0,.23-.02.27-.16-.08-.12-.22-.16-.33-.21-.13-.05-.23-.13-.27-.22-.06-.15-.18-.24-.27-.35-.26-.3-.46-.64-.58-1-.09-.3-.22-.51-.36-.81-.21-.44-.56-.77-.91-1.11-.1-.09-.2-.17-.32-.23-.18-.09-.37-.16-.52-.31-.12-.12-.14-.1,0-.19.09-.06.23-.13.15-.23-.08-.09-.14-.37-.38-.17-.05.05-.05-.03-.07-.06-.06-.12-.19,0-.27-.09-.05-.04-.07.05-.1.1-.06.11-.13.1-.18,0s-.09-.2-.14-.3c-.11.11,0,.27-.16.43-.05-.09-.09-.16-.14-.26-.02.25-.08.36-.21.52-.07.09-.19.06-.25.17-.07.12,0,.24-.03.36,0,.03,0,.06-.03.08-.08.09-.17.16-.17.31,0,.08-.15.16-.16.25,0,.13-.18.15-.17.3.15-.02.27-.12.43-.11.25.02.24,0,.2.26-.05.31.1.53.3.76.12.13.28.06.4.18.08.08.16-.09.25-.15.07-.05.17-.05.16.06-.02.11.11.15.07.25-.11.31-.12.64-.15.95-.02.36-.17.7-.1,1.07,0,.06-.05.07-.06.11-.16.53-.38,1.05-.31,1.63,0,.11-.05.18-.08.27.11.08.25-.03.35.07t0,.2c0,.09.03.2,0,.27-.06.11.15.13.06.23-.05,0-.09.02-.13-.03-.04-.06-.1-.09-.16-.06-.08.05-.06.13,0,.19.05.05.05.1,0,.16-.05.07-.1.14-.13.22-.14.33-.14.39.06.72v-.09c0-.05,0-.09.06-.07.02,0,.03.05.03.08,0,.02,0,.05.02.09h.02s.03.03,0,.03c.03.04.02.06,0,.06-.02-.01-.05-.02-.05-.04v-.03s-.06-.01-.09-.01c-.02.14.02.26.09.38.25.43.59.78.93,1.13.14.15.34.34.63.26.11-.03.19.04.28.1.39.28.82.48,1.21.75.29.21.65.34.81.71.05.11.18.22.3.27.08.04.12.06.12.15v.05c0,.27.19.42.41.48.09.03.16.07.23.11.31.15.29.21.23.57-.05.3-.14.59-.22.88,0,.05-.03.08.04.09,0,0,0,0,.02.01v.03s-.03.02-.03.02h-.02s0,.02-.03.03c0,0,0,.02-.02.03-.03.03-.16,0-.13.04.22.28,0,.21-.16.23-.05,0-.12.08-.13.13-.05.4-.39.36-.65.42-.19.04-.4.01-.6,0-.24,0-.48-.02-.67.18-.03.03-.14-.02-.12.07,0,.02.02.05.05.07h0s.05.04.08.04c.09.02.22.04.27,0,0-.01.03-.03.04-.04.38,0,.22-.04.58-.04-.09-.02.35,0,.28,0h.08c.1,0,.22-.04.31.01.05.03.09.09.08.15,0,.04-.04.07-.07.11-.05.05-.17.16-.24.28,0,0-.05.09-.07.23,0,.06,0,.09.02.11.03.02.07.01.08.01,0-.05,0-.09.03-.11.02-.03.05-.04.06-.07,0-.04,0-.05.02-.08,0-.03.03-.03.05-.07.04-.05,0-.08.05-.12.02-.03.06-.05.07-.06.03-.02.03-.01.04-.02.03-.03.02-.06.05-.09,0-.01.03-.02.07-.03,0-.01.02-.02.04-.03,0-.01,0-.02,0-.03,0,0,.02,0,.03-.02.1-.17.38-.14.41-.37,0-.05.07-.16.13-.16.05,0,.08-.03.12,0,.05.04.22.07.33.07h.09s.03-.02.02-.05c0-.03-.05-.04-.07-.05-.06-.02-.13-.05-.23-.08-.03,0-.05-.12-.1-.18s-.05-.11-.02-.16c0-.05,0-.09.05-.12,0,0,0-.01.02-.02v-.06c0-.06.02-.1.03-.14.02-.12.04-.17.08-.12.04-.02.1-.03.19-.03h.07l-.03-.19c-.08-.02-.08-.1-.06-.17v-.03s0-.05,0-.07c.12-.36.23-.72.59-.93.18-.1.35-.22.48-.38.04-.05.08-.1.15-.08.11.03.05.12.07.22,0,.02-.02.03-.03.05v.04c-.03.05-.05.1-.06.15-.03.17-.02.35-.07.52-.02.11-.06.22-.13.32.03.06.11.12.04.19,0,.03,0,.07-.04.11-.09.07-.13-.11-.24.03-.07.09-.28.07-.43.07-.04,0-.11-.01-.15,0-.03,0-.04.04-.05.03l-.03.06s.02.04.02.03c.05.01.06,0,.11-.02.11.06.2.07.31.02h0c.08,0,.17.03.26-.05h0s.07,0,.08.02c.05.05,0,.07-.03.09h0c.06.06-.02.07-.04.09-.21.23-.49.34-.78.44-.03.01-.07.02-.1.03,0,.03.02.05.03.07l-.05.04M59.5,65.91s.02-.02.03-.03c.02.02.05.03.06.06.03.04.12.06.03.12-.02.02-.09,0-.12-.03-.02-.02,0-.08,0-.12ZM58.1,66.61v-.04c.02.15.04.28.05.39-.06-.1-.11-.21-.06-.35h.01ZM58.12,67.81c-.03-.1.16-.17.02-.26-.06-.03-.17,0-.14-.12.02-.08.08-.16.18-.17.05.54,0,.54-.06.54h0ZM58.35,67.81c0-.12,0-.23,0-.33.03.1.06.2,0,.33ZM59.41,67.51s-.04-.16-.06-.13c-.19.21-.28-.06-.42-.07-.03,0-.1-.06-.12-.03-.16.2-.32.02-.48,0,0-.79.07-.93.19-1.01.11.21.22.25.35.1.08-.09.08-.23.2-.29.03.06.06.12.09.2.02-.07.03-.13.07-.18.02-.02.08-.03.12-.02.05.02.06.08.04.12-.04.06-.1.12-.15.17-.2.18-.26.26-.35.45-.14.02-.22-.17-.38-.08,0,.02-.04.04-.04.07,0,.1-.05.27.15.12.07.21.16.22.36.1.13-.08.34-.07.5.09.12.12.11.24.1.37,0,.05-.04.08-.1.07-.03,0-.06-.02-.08-.04h.01ZM59.36,66.7c-.04.06-.07.13-.1.19-.07-.09-.24-.14-.09-.28.03-.03.06-.13.13-.04.03.04.13.04.06.13ZM59.52,67.9s-.02-.02-.03-.03c.02-.01.04-.02.06-.03,0,0,.02.02.03.03-.02.01-.04.02-.06.03ZM59.84,66.4s-.04.04-.06,0c-.04-.08-.13-.05-.23-.1.13-.06.22-.07.29-.02.02.02,0,.08,0,.12ZM60.18,68.01s-.09.02-.12-.03c0-.01.02-.06.03-.06.04,0,.09-.02.12.03,0,.02-.02.05-.04.05h.01ZM60.46,66.43l-.03-.06s.02-.02.03-.03l.03.06s-.02.02-.03.03ZM60.76,75.96c-.04.06-.09.06-.15.04-.04-.01-.04-.05-.02-.06.04-.02.08-.02.12-.03.04-.01.06,0,.04.04h.01ZM60.93,75.77c-.04.05-.08.11-.13.15-.03.03-.04,0-.04-.04v-.03c-.05.07-.09.07-.12.06-.04-.01-.04-.05-.02-.06.04-.02.08-.02.12-.03h.02s0-.04.02-.06c0-.07,0-.12.09-.13-.02.04-.03.07-.05.1h.04c.06-.08.07-.07.09-.06-.02.02-.04.05-.06.08,0,0,.03.01.04.02ZM61.08,75.46s-.03-.02-.03-.03c0-.02.02-.04.03-.06,0,.01.02.02.03.03l-.03.06ZM61.1,75.37s-.03-.02-.03-.03c0-.02.02-.04.03-.06,0,.01.02.02.03.03l-.03.06ZM61.39,65.88l-.03-.06s.02-.02.03-.03l.03.06s-.02.02-.03.03ZM61.54,69.03v-.07c.12-.02,0-.28.21-.22.02,0,.05.05.05.06-.02.12-.09.21-.26.22h0ZM61.99,69.54c.06-.07.12-.07.19,0-.06.07-.12.07-.19,0ZM62.21,69.85s-.02-.02-.05-.05c.06-.02.07-.03.08-.03.07.02.19-.06.21.09,0,.02,0,.06-.03.08-.11.07-.15-.03-.22-.09h0ZM62.39,70.4s-.02-.02-.03-.03c.02-.01.04-.02.06-.03,0,0,.02.02.03.03-.02.01-.04.02-.06.03ZM62.66,65.63s.05-.03.07-.03c.11,0,.1.08.07.22-.06-.09-.14-.11-.14-.19ZM62.78,66.34s-.03-.02-.03-.03c0-.02.02-.04.03-.06,0,.01.02.02.03.03l-.03.06ZM62.88,66.14s-.05-.02-.05-.04v-.02c.08.05.06.06.06.06h-.01ZM62.82,66.07h0s-.07-.05-.07-.05c0-.04.04-.04.05-.02,0,.02.02.05.03.07h.04s.03.03.04.05c-.04-.02-.07-.03-.09-.05h0ZM63.05,65.78s-.02-.02-.03-.03l.03-.06s.03.02.03.03c0,.02-.02.04-.03.06ZM63.23,66.05s-.02-.02-.03-.03c.02-.01.04-.02.06-.03,0,0,.02.02.03.03-.02.01-.04.02-.06.03ZM63.98,67.82s.03.02.03.03c0,.02-.02.04-.03.06,0-.01-.02-.02-.03-.03l.03-.06ZM63.77,68.08c.08-.09.16-.08.27-.03-.09.09-.18.03-.27.03ZM65.85,70.25s.02.05.03.07c0,.05,0,.09-.06.08-.01,0-.03-.05-.03-.07,0-.04,0-.09.06-.08ZM65.37,69.02c.13.11.19.26.25.42-.18.14-.29-.14-.46-.06.08-.13.2-.21.21-.36ZM65.65,63.56s.02.02.03.03c-.01.02-.02.04-.03.06-.01,0-.03-.02-.03-.03,0-.02.02-.04.03-.06ZM65.31,67.12s-.02.05-.04.05h-.02c.05-.08.06-.06.06-.06h0ZM65.28,66.9s.03.02.03.03c0,.02-.02.04-.03.06l-.03-.03s.02-.04.03-.06ZM65.19,63.93s.02.04.03.06c0,0-.02.02-.03.03-.01-.02-.02-.04-.03-.06.01,0,.02-.02.03-.03ZM65.07,67.2s.08-.02.12-.03h.04v-.04s.03-.03.05-.04c-.02.04-.03.07-.05.09h0c-.06.09-.11.09-.15.08-.04-.01-.04-.05-.02-.06h0ZM64.91,63.28s.02.04.03.06c-.01,0-.02.02-.03.03-.01-.02-.02-.04-.03-.06,0,0,.02-.02.03-.03ZM64.89,63.67l.06.03s-.02.03-.03.03c-.02,0-.04-.02-.06-.03.01,0,.02-.02.03-.03ZM64.94,67.3s-.02.04-.03.06l-.03-.03s.02-.04.03-.06c.01.01.03.02.03.03ZM64.82,67.08s.02.04.03.06l-.03.03s-.02-.04-.03-.06l.03-.03ZM64.72,64.02s.02.04.03.06l-.03.03s-.02-.04-.03-.06l.03-.03ZM64.63,67.36s.02.04.03.06l-.03.03s-.02-.04-.03-.06l.03-.03ZM64.46,63.85s.02.02.03.03l-.06.03s-.02-.02-.03-.03l.06-.03ZM64.34,65.52s.04.02.06.03l-.03.03s-.04-.02-.06-.03c.01-.01.02-.03.03-.03ZM64.08,68.03c.11-.15.22-.1.34-.12h-.03c-.09.15-.18.06-.32.11h.01ZM64.2,68.33c.11-.06.19-.06.3,0-.1.06-.18.07-.3,0ZM64.72,68.75s-.03-.02-.03-.03c0-.02.02-.04.03-.06l.03.03s-.02.04-.03.06ZM65.51,67.17c0,.06-.03.1-.09.09,0,.06-.03.1-.09.09,0,.14-.12.08-.19.09-.21.23-.43.37-.7.45-.06-.18-.27,0-.33-.15.36-.06.68-.2,1.02-.3,0-.14.12-.08.19-.09,0-.06.03-.1.09-.09,0-.06.03-.1.09-.09-.01-.12.05-.25-.1-.35.35.12.35.13.1.35h.01Z"/>
          <g>
            <path d="M75.6,74.06c-3.44.09-4.61-1.61-4.45-4.69.06-1.1.33-2.19.51-3.28-.76,3.59-1.51,7.19.03,10.78.32.75.79,1.09,1.66,1.09,6.91,0,13.83.08,20.74.08.96,0,1.91-.33,3.27-.58-2-1.84-4.04-1.76-6.28-2.04,1.01-.26,1.72-.45,2.43-.64-5.99-.77-11.96-.88-17.93-.72h.02Z"/>
            <path d="M30.8,59.49c-4.78-1.29-9.78.92-15.59-.83,1.71-.27,2.44-.46,3.18-.48,3.61-.07,7.24.1,10.84-.19,3.45-.28,2.03-3.04,2.08-4.97.03-1.36-.85-2.74.04-4.06.11-.17.69-.02,1.47-.02-1.41,8.91-.81,17.63-.16,26.34.51-.41.72-.72.79-2.11v-4.96c0-1.37,0-2.75,0-4.22v-15.85h35.69v16.16c.01.54,0,1.08,0,1.62v6.26c.09,1.11.27,2.23.61,3.39.87-9.32,1.29-17.87-.02-26.61.77,0,1.28-.14,1.41.02.87,1.11.1,2.32.12,3.5.03,1.88-1.55,4.68,1.41,5.19,3.45.6,7.08.19,10.63.26.79.02,1.58.2,3.29.43-5.52,1.87-10.32-.47-14.93.98,1.84,4.51.82,9.2,1.21,13.97,1.46-.22,2.85-.53,4.25-.63,4.3-.3,8.69.64,12.9-.94,1.71-.64,2.15-1.31,1.36-2.42-4.49,2.54-4.55.8-4.2-3.51.39-4.79,1.98-10.26-1.02-14.54-9.9-14.12-29.51-20.9-46.14-16.45-17.33,4.64-26.54,15.13-25.87,29.66.18,3.93,1.52,8.23-4.4,9.26h19.88c.18-4.93-.59-9.62,1.16-14.22v-.03ZM84.6,64.51c-.22.65-.46,1.25-.7,1.8.04.21.07.56-.03.95-.05.17-.11.32-.17.44-.16.26-.46.62-.92.8-.34.13-.66.12-1.04.11-.34-.01-.63-.06-.82-.1-.08.06-.16.12-.24.18v.18c-.01.2-.04.52-.05.65-.04.47-.04.85-.04,1.09-.07.02-.14.05-.21.07.03-.15.07-.46-.04-.82-.09-.29-.25-.49-.35-.6h0c0,.15-.01.3-.02.45-.1.18-.26.43-.52.66-.19.17-.37.29-.52.37.11-.14.23-.33.34-.56.16-.34.23-.64.26-.87-.09-.03-.22-.08-.35-.18-.16-.12-.26-.26-.32-.34-.09-.02-.24-.05-.42-.1-.48-.13-.96-.27-1.39-.64-.16-.14-.33-.3-.44-.56-.05-.14-.09-.32-.05-.79.03-.33.07-.55.17-1.03.04-.21.13-.66.23-1.21.04-.26.1-.6,0-.94,0-.03-.06-.2-.19-.38-.07-.09-.15-.19-.28-.23-.07-.02-.13,0-.17,0-.15,0-.3,0-.44-.02h-.57c.11-.2.22-.4.33-.59.07-.13.14-.26.23-.4.08-.13.12-.17.2-.29,0-.14.04-.21.08-.25.05-.05.08-.04.15-.1.07-.06.06-.09.12-.14.05-.04.14-.07.23-.05.08.02.15.07.19.14s.01.11.05.14c.06.04.13-.02.21,0,.07.03.06.08.12.14.12.1.27,0,.39.08.05.03.11.11.13.29h0c.09.05.16.09.21.12.09.06.46.29.78.71.19.25.31.49.48.83.17.33.15.37.26.52.1.15.3.42.68.59.4.17.76.11.87.08.11-.02.43-.1.69-.37.21-.22.28-.45.36-.69.04-.13.08-.28.14-1.01.02-.26.04-.47.05-.62.03-.05.07-.1.13-.16.15-.14.33-.15.39-.16.17-.02.44-.03.74.04.2.05.46.1.72.3.32.25.45.57.54.8.11.28.15.54.16.7-.09.31-.19.63-.3.96h-.04ZM20.74,55.98h10.21c-4.15,1.67-7.2.52-10.21,0ZM18.82,48.88c17.43-17.27,37.76-17.48,54.6-7.39,4.98,2.98,10.33,6.39,12.35,12.4-4.44,1.92-8.57,3.34-14.54,1.33,5.22.36,8.86,0,12.81-2.02-1.79-.67-3.04-1.14-4.34-1.63.89-1.08,2.87-.19,3.45-2.22-1.88.63-3.51,1.18-5.29,1.77.94-1.44,1.86-2.79.63-5.1-.85,3.38-2.31,5.73-5.73,6.48.07-.99.12-1.8.26-3.82.32,1.44.37,1.66.4,1.8,1.26-.91,2.51-1.83,3.78-2.74-1.34-1.94-54.41-1.23-56.58,1.35,2.27-.12,4.1-.13,5.9-.33,1.58-.18,2.81.46,3.17,1.76.34,1.23-1.11,1.52-2.05,1.82-2.63.83-5.32.89-7.91.33-1.05,1.09-2.03,2.11-3.46,3.61-.2-3.36.74-5.6,2.56-7.41h0ZM27.06,63.69c-.38.14-.77.29-1.15.43-.08.03-.28.14-.36.36-.06.16-.03.3.02.45.13.41.33.62.65,1.06.29.41.44.62.53.89.05.16.16.48.1.86-.05.34-.27.62-.7,1.15-.4.5-.61.75-.98.91-.02.01-.05.02-.07.03.02,0,.04-.01.05-.02-.13.17-.34.51-.46.92-.12.4-.11.74-.09.95-.07-.12-.14-.25-.21-.4s-.12-.28-.17-.41c-.04-.01-.1-.04-.17-.11-.05-.06-.1-.13-.12-.17h.01c-.1.07-.2.12-.28.16-.08.14-.15.31-.22.5-.09.25-.15.49-.19.69,0-.28-.02-.62-.1-1-.03-.15-.08-.29-.12-.41-.2-.17-.4-.33-.6-.5-.37.07-.68.06-.89.03-.86-.1-1.41-.56-1.53-.65-.27-.23-.42-.45-.51-.58-.3-.43-.44-.85-.51-1.12-.08-.08-.27-.26-.58-.32-.5-.1-.88.18-.94.22-.16-.12-.56-.46-.69-1.03-.04-.17-.04-.33-.03-.46.02-1,.2-1.64.37-2.25.18-.47.23-.78.39-1,.22-.32.61-.45.72-.49.09-.03.32-.15.77-.02.51.15.66.27.91.48.42.35.74.62.91,1.08.06.17.15.32.28,1.02.03.16.09.46.11.55.23.11.28.14.54.24.43.16.66.12.83.1.46-.07.72-.47.92-.79.3-.48.22-.56.51-1.07.05-.09.28-.49.73-.87-.12.11-.23.21-.3.3-.03,0-.17-.06-.24-.16-.01-.02-.08-.12-.04-.2.04-.07.13-.03.22-.13.04-.05.03-.07.08-.12s.11-.07.15-.08c0-.09.06-.17.14-.2.09-.03.19,0,.25.07-.07-.07-.07-.18-.02-.24.06-.06.15-.04.15-.04-.03-.05-.04-.11-.02-.16.03-.07.12-.1.2-.08v-.15c.06-.26.35-.37.39-.39.03.08.08.19.18.3.12.12.22.14.41.24.09.05.22.13.37.26.02.09.03.22.06.31.12.18.24.37.36.55.14.12.28.25.42.37-.15.05-.3.11-.45.16v-.02Z"/>
            <path d="M100,73.51c-2.89.04-4.18-3.5-7.29-3.28,2.06,2.78,6,4.36,4.76,8.55-8.36,0-16.58.1-24.79-.07-1.2-.02-2.55-.15-3.55-.77v.42h-35.69v-.02c-1.1.43-2.71.4-3.86.75,3.18-4.51,2.12-9.18,1.11-13.84.19,2.76,1.93,5.67-.84,8.44h.25c-.15.05-.29.11-.42.16-.02.02-.04.04-.06.05v-.03c-1.04.41-1.61.72-2.21.79-7.45.77-14.95-.42-22.43.68-4.04.59-5.71,2.26-4.69,5.95.42-.85,1.89-1.57,3.93-2.14,1.21.57,2.45,1.11,3.68,1.1,10.42-.09,20.85-.65,31.26-.36l20.14-.02c5.41.15,5.66.04,8.73,0,8.53.08,16.29.08,24.69.24,5.37.1,7.53-1.9,7.25-6.61h.03ZM18.89,76.44h-10.26c3.43-.95,6.84-.72,10.26,0ZM4.62,79.07c6.07-1.57,16.57-1.78,19.69.34-6.59,0-13.13.22-19.69-.34Z"/>
          </g>
          <path d="M6.83,81.2c26.26,3.25,52.69-.36,78.96,2.79-25.59-1.47-51.14.91-76.75.22,3.62,1.32,6.24,4.68,10.73,4.03,4.08-.59,8.31-.13,12.47-.13,16.02,0,32.04-.17,48.06.1,5.08.09,9.42-.34,12.42-5,.58-.9,1.76-1.43,2.52-2.02H6.83ZM15.14,86.44v-.45h69.71v.45H15.14Z"/>
        </g>
        <g>
          <path class="cls-2" d="M80.6,69.11l-.03.03h-.02l-.04.04s-.03.02-.05.03c-.2.11-.4.05-.44.03h0c.1.11.26.31.35.6.12.36.07.67.04.82.07-.02.14-.05.21-.07,0-.24,0-.62.04-1.09.01-.13.04-.45.05-.65-.01.08-.05.15-.09.21,0,.01-.02.03-.03.04h0Z"/>
          <path class="cls-2" d="M84.26,62.05c-.26-.2-.52-.26-.72-.3-.31-.07-.57-.06-.74-.04-.07,0-.24.02-.39.16-.06.05-.1.11-.13.16-.01.14-.03.36-.05.62-.07.73-.1.88-.14,1.01-.08.25-.15.48-.36.69-.27.27-.58.34-.69.37-.11.02-.47.09-.87-.08-.38-.16-.58-.44-.68-.59-.11-.15-.09-.19-.26-.52-.17-.33-.29-.58-.48-.83-.32-.42-.68-.65-.78-.71-.05-.03-.12-.08-.21-.12-.1-.05-.22-.11-.36-.15-.08-.03-.16-.05-.26-.07-.03,0-.05,0-.08-.02-.02,0-.05,0-.07,0-.09,0-.18-.02-.33-.02h-.11c-.12,0-.27,0-.45.02-.08.12-.12.16-.2.29-.08.14-.16.27-.23.4.08.2.16.4.24.59.15,0,.3,0,.44.02.04,0,.1-.02.17,0,.13.03.21.13.28.23.13.18.18.35.19.38.1.34.04.67,0,.94-.09.54-.18,1-.23,1.2-.1.48-.14.7-.17,1.03-.04.47,0,.65.05.79.1.26.27.42.44.56.43.38.91.51,1.39.64.18.05.33.08.42.1.05.09.15.22.32.34.13.1.26.15.35.18-.03.23-.1.53-.26.87-.11.23-.23.42-.34.56.15-.08.33-.2.52-.37.26-.24.42-.48.52-.66,0-.15.01-.3.02-.45h0c.2.07.34.04.49-.06.02-.01.04-.03.06-.04l.03-.03s.02-.02.03-.04c.1-.17.09-.39.1-.39.08-.06.16-.12.24-.18.19.04.48.09.82.1.38.01.7.02,1.04-.11.47-.18.76-.53.92-.79.06-.12.12-.26.17-.44.1-.4.07-.74.03-.95.24-.55.48-1.15.7-1.8.11-.33.21-.65.3-.96-.01-.17-.05-.42-.16-.7-.09-.23-.22-.55-.54-.79v-.03ZM76.21,62.13s-.02,0-.02-.02,0-.02.02-.02.02,0,.02.02,0,.02-.02.02Z"/>
          <path class="cls-2" d="M75.33,62.88h.57c-.08-.19-.16-.39-.24-.59-.11.2-.22.39-.33.59Z"/>
          <path class="cls-2" d="M76.54,61.58h0c.16,0,.26,0,.41.02h.02s.05,0,.07,0c.02,0,.04,0,.07,0h.01c.11.02.19.05.24.07h.02c.15.05.27.1.36.15h0c-.01-.18-.07-.25-.13-.29-.12-.08-.27.02-.39-.08-.06-.06-.05-.11-.12-.14-.09-.04-.16.03-.21,0-.04-.03-.01-.07-.05-.14s-.11-.12-.19-.14c-.09-.02-.17,0-.23.05-.06.04-.04.07-.12.14-.07.06-.11.06-.15.1-.04.04-.08.11-.08.25.04,0,.16-.02.27-.02h.18l.02.02Z"/>
          <path class="cls-5" d="M76.21,62.1s-.02,0-.02.02,0,.02.02.02.02,0,.02-.02,0-.02-.02-.02Z"/>
        </g>
        <g>
          <path class="cls-2" d="M27.06,63.73c-.38.14-.77.29-1.15.43-.08.03-.28.14-.36.36-.06.16-.03.3.02.45.13.41.33.62.65,1.06.29.41.44.62.53.89.05.16.16.48.1.86-.05.34-.27.62-.7,1.15-.4.5-.61.75-.98.91-.02.01-.05.02-.07.03.02,0,.04-.01.05-.02-.13.17-.34.51-.46.92-.12.4-.11.74-.09.95-.07-.12-.14-.25-.21-.4s-.12-.28-.17-.41c-.04-.01-.1-.04-.17-.11-.05-.06-.1-.13-.12-.17h.01c-.1.07-.2.12-.28.16-.08.14-.15.31-.22.5-.09.25-.15.49-.19.69,0-.28-.02-.62-.1-1-.03-.15-.08-.29-.12-.41-.2-.17-.4-.33-.6-.5-.37.07-.68.06-.89.03-.86-.1-1.41-.56-1.53-.65-.27-.23-.42-.45-.51-.58-.3-.43-.44-.85-.51-1.12-.08-.08-.27-.26-.58-.32-.5-.1-.88.18-.94.22-.16-.12-.56-.46-.69-1.03-.04-.17-.04-.33-.03-.46.02-1,.2-1.64.37-2.25.18-.47.23-.78.39-1,.22-.32.61-.45.72-.49.09-.03.32-.15.77-.02.51.15.66.27.91.48.42.35.74.62.91,1.08.06.17.15.32.28,1.02.03.16.09.46.11.55.23.11.28.14.54.24.43.16.66.12.83.1.46-.07.72-.47.92-.79.23-.36.24-.5.35-.76,0,0,.06-.14.16-.31.22-.39.61-.76.73-.87l-.3.3s-.17-.06-.24-.16c-.01-.02-.08-.12-.04-.2.04-.07.13-.03.22-.13.04-.05.03-.07.08-.12s.11-.07.15-.08c0-.09.06-.17.14-.2.09-.03.19,0,.25.07-.07-.07-.07-.18-.02-.24.06-.06.15-.04.15-.04-.03-.05-.04-.11-.02-.16.03-.07.12-.1.2-.08v-.15c.06-.26.35-.37.39-.39.03.08.08.19.18.3.12.12.22.14.41.24.09.05.22.13.37.26.02.09.03.22.06.31.12.18.24.37.36.55.14.12.28.25.42.37-.15.05-.3.11-.45.16v-.02ZM24.7,63.15c.09-.09.19-.18.3-.26.08-.07.16-.13.24-.19M25.23,62.71c.19-.12.33-.14.45-.18,0,0,.25-.08.53-.04.2.03.15,0,.32.06.05.02.05,0,.2.07"/>
          <path class="cls-2" d="M26.45,63.07s-.02,0-.02.02,0,.02.02.02.02,0,.02-.02,0-.02-.02-.02Z"/>
          <path class="cls-2" d="M27.1,63.2l-.03.53"/>
          <path class="cls-2" d="M23.94,70.63c.09-.06.2-.14.3-.26.12-.14.2-.28.25-.38.08,0,.17,0,.28-.02.16-.02.29-.07.38-.12"/>
          <path class="cls-2" d="M23.15,66.88s-.08-.1-.14-.15c-.1-.09-.19-.14-.27-.18l-2.32-.62c-.21.17-.49.44-.73.84-.17.28-.28.54-.35.75.03.29.13.75.42,1.12.14.17.35.35.37.37.17.15.33.26.44.33.39.04.86.06,1.39.01.35-.03.67-.09.95-.15.18-.15.39-.33.59-.57.14-.16.26-.32.36-.46-.1-.21-.22-.44-.35-.67-.12-.22-.25-.43-.37-.62h0Z"/>
        </g>
        <path d="M63.36,44.13c.26-1.51.45-2.62.68-3.96.48,1.44.89,2.67,1.57,4.72v-5.06c1.59,1.08,2.76,2.28,2.11,4.04-.91,2.46-3.13,2.11-5.5,1.95.63-.23.96-.35,1.7-.62-1.71-.15-2.99-.26-4.29-.37.63-1.29,1.16-2.39,1.89-3.9.69,1.2,1.16,2.02,1.84,3.21h0Z"/>
      </g>
    </g>
    <rect id="Escalón_1" data-name="Escalón 1" x="32.71" y="76.13" width="37.72" height="2.05"/>
  </g>
</svg>